<?xml version="1.0" encoding="UTF-8" standalone="no"?>
<svg
   xmlns:dc="http://purl.org/dc/elements/1.1/"
   xmlns:cc="http://creativecommons.org/ns#"
   xmlns:rdf="http://www.w3.org/1999/02/22-rdf-syntax-ns#"
   xmlns:svg="http://www.w3.org/2000/svg"
   xmlns="http://www.w3.org/2000/svg"
   xmlns:sodipodi="http://sodipodi.sourceforge.net/DTD/sodipodi-0.dtd"
   xmlns:inkscape="http://www.inkscape.org/namespaces/inkscape"
   version="1.1"
   width="60mm"
   height="80mm"
   viewBox="0 0 60 80"
   id="svg2"
   inkscape:version="0.91 r13725"
   sodipodi:docname="combined.svg">
  <metadata
     id="metadata589">
    <rdf:RDF>
      <cc:Work
         rdf:about="">
        <dc:format>image/svg+xml</dc:format>
        <dc:type
           rdf:resource="http://purl.org/dc/dcmitype/StillImage" />
        <dc:title></dc:title>
      </cc:Work>
    </rdf:RDF>
  </metadata>
  <defs
     id="defs587" />
  <sodipodi:namedview
     pagecolor="#ffffff"
     bordercolor="#666666"
     borderopacity="1"
     objecttolerance="10"
     gridtolerance="10"
     guidetolerance="10"
     inkscape:pageopacity="0"
     inkscape:pageshadow="2"
     inkscape:window-width="1920"
     inkscape:window-height="1030"
     id="namedview585"
     showgrid="true"
     inkscape:zoom="2.7751853"
     inkscape:cx="56.195348"
     inkscape:cy="143.35766"
     inkscape:window-x="0"
     inkscape:window-y="0"
     inkscape:window-maximized="1"
     inkscape:current-layer="layer2"
     inkscape:document-units="mm"
     inkscape:snap-center="false"
     inkscape:object-paths="true"
     inkscape:object-nodes="true"
     inkscape:snap-object-midpoints="false"
     inkscape:snap-text-baseline="true">
    <inkscape:grid
       units="mm"
       spacingx="1"
       spacingy="1"
       empspacing="4"
       type="xygrid"
       id="grid4158" />
  </sodipodi:namedview>
  <g
     id="copper1-top"
     inkscape:groupmode="layer"
     style="fill:#ff0000;fill-opacity:0.3;stroke:#800000;stroke-width:0.02mm;stroke-opacity:0.5"
     transform="translate(0,56)" />
  <g
     id="copper1-bot"
     inkscape:groupmode="layer"
     style="fill:#0000ff;fill-opacity:0.3;stroke:#000080;stroke-width:0.02mm;stroke-opacity:0.5"
     transform="translate(0,56)" />
  <g
     id="board-outline"
     inkscape:groupmode="layer"
     style="fill:#333333;fill-opacity:0.3;stroke:#1a1a1a;stroke-width:0.02mm;stroke-opacity:0.5"
     transform="translate(0,56)" />
  <g
     id="drill-plated"
     inkscape:groupmode="layer"
     style="fill:#808080;fill-opacity:0.3;stroke:#404040;stroke-width:0.02mm;stroke-opacity:0.5"
     transform="translate(0,56)" />
  <g
     inkscape:groupmode="layer"
     id="layer2"
     inkscape:label="all"
     transform="translate(0,56)">
    <path
       inkscape:connector-curvature="0"
       style="opacity:1;fill:#000000;fill-opacity:1;stroke:none;stroke-opacity:1"
       d="m 15.736984,-50.72922 -0.04134,5.5e-4 -0.01929,0.0022 -0.895174,0.06394 -0.0017,0 -0.04299,0.005 -0.901237,0.145521 -0.0039,5.5e-4 -0.04189,0.0088 -0.881945,0.225999 -0.0061,0.0011 -0.04189,0.01323 -0.856037,0.302066 -0.0083,0.0028 -0.01599,0.0066 -0.0237,0.0094 -0.01213,0.0061 -0.817452,0.374275 -0.0044,0.0016 -0.03803,0.01929 -0.0011,5.5e-4 -0.784931,0.448689 -0.01102,0.0055 -0.01764,0.01158 -0.01874,0.01157 -0.01433,0.01047 -0.7292581,0.507669 -0.0094,0.0055 -0.03473,0.02701 -0.701146,0.588147 -0.0011,0.0011 -0.03087,0.02811 -5.64e-4,5.65e-4 -5.64e-4,5.64e-4 -0.636654,0.63941 -0.01047,0.0094 -0.01488,0.01709 -0.01378,0.01488 -0.0094,0.01213 -0.576571,0.691775 -0.0011,0.0011 -0.02481,0.03418 -0.0011,0.0011 -0.520347,0.75296 -5.65e-4,5.65e-4 -0.005,0.0083 -0.01819,0.02811 -0.0055,0.01047 -0.445382,0.787135 -0.0204,0.03803 -0.01599,0.04134 -0.01268,0.04189 -0.0094,0.04189 -0.0055,0.043 -0.0011,0.0441 0.0016,0.0441 0.0061,0.043 0.0099,0.04189 0.01433,0.04189 0.01709,0.04024 0.01984,0.03914 0.0237,0.03583 0.02701,0.03417 0.02921,0.03197 0.03307,0.02977 0.03473,0.02591 0.03748,0.02315 0.03748,0.01984 0.04134,0.01599 0.04189,0.01323 0.04189,0.0088 0.0441,0.005 0.043,0.0022 0.0441,-0.0022 0.04299,-0.0061 0.04189,-0.0099 0.04189,-0.01378 0.04024,-0.01709 0.03914,-0.01984 0.03583,-0.02425 0.03473,-0.02701 0.03142,-0.02977 0.02977,-0.03197 0.02591,-0.03528 0.02315,-0.03693 0.442646,-0.781059 0.491684,-0.711068 0.555625,-0.668624 0.61681,-0.618464 0.6697261,-0.561688 0.709965,-0.493889 0.755717,-0.431601 0.788237,-0.361046 0.830682,-0.293247 0.837296,-0.214423 0.863203,-0.139457 0.868164,-0.06174 0.874779,0.01599 0.362148,0.03969 -0.09481,0.618464 -0.396875,-0.04079 -0.0088,-0.0011 -0.04299,-0.0017 -0.876432,0 -0.0066,0 -0.01047,5.64e-4 -0.02591,0.0011 -0.0083,0.0011 -0.870369,0.08875 -0.01599,0.0022 -0.0094,0.0011 -0.0072,0.0011 -0.01047,0.0017 -0.0072,0.0017 -0.01819,0.0033 -0.01213,0.0039 -0.0044,0.0011 -0.04244,0.01433 -0.0088,0.0039 -0.01378,0.005 -0.01213,0.0061 -0.005,0.0022 -0.0088,0.005 -0.01323,0.0066 -0.01213,0.0072 -0.0039,0.0022 -0.02095,0.01268 -0.03638,0.02646 -0.0077,0.0072 -0.0061,0.0044 -0.0094,0.0088 -0.0088,0.0083 -0.03087,0.03087 -0.02701,0.03418 -0.0072,0.01157 -0.0028,0.0033 -0.01378,0.02205 -0.0094,0.01488 -0.01984,0.03914 -0.0061,0.01599 -0.0039,0.0083 -0.0039,0.01102 -0.0022,0.0061 -0.0044,0.01323 -0.0033,0.01047 -5.64e-4,0.0033 -0.005,0.01488 -0.0033,0.01819 -0.0017,0.0066 -0.0022,0.01268 -5.65e-4,0.0044 -5.64e-4,0.0033 -0.0033,0.0226 -0.0033,0.043 5.64e-4,0.01213 -5.64e-4,0.0061 5.64e-4,0.0088 5.65e-4,0.01709 0.005,0.043 0.525308,3.414227 0.005,0.02425 -0.0022,5.65e-4 -0.116857,0.03197 -0.314193,0.09922 -0.112999,0.04079 -0.30372,0.126228 -0.10914,0.05071 -0.292144,0.152136 -0.104731,0.06008 -0.277262,0.17694 -0.09922,0.0689 -0.260725,0.200091 -0.09205,0.07772 -0.243085,0.22214 -0.08489,0.08489 -0.22214,0.243086 -0.07772,0.09205 -0.200091,0.260724 -0.0689,0.09922 -0.17694,0.277262 -0.06008,0.104731 -0.152136,0.292144 -0.05071,0.109141 -0.126228,0.303719 -0.04079,0.112999 -0.09922,0.314193 -0.03197,0.116858 -0.07111,0.320807 -0.02095,0.119063 -0.04299,0.326319 -0.0099,0.119614 -0.01488,0.329076 0,0.120165 0.01488,0.329075 0.0099,0.119614 0.04299,0.326319 0.02095,0.119063 0.07111,0.320807 0.03197,0.116858 0.09922,0.314192 0.04079,0.113 0.126228,0.30427 0.05071,0.10859 0.152136,0.292144 0.06008,0.105282 0.121819,0.190169 -0.02315,0.01654 -2.2831511,1.83167 -0.187964,-0.259622 -0.416168,-0.720438 -0.345612,-0.771702 -0.0017,-0.0033 -0.0061,-0.01378 -0.01213,-0.02205 -0.0033,-0.0055 -0.0061,-0.01047 -0.01378,-0.02095 -5.64e-4,-0.0011 -0.0094,-0.01378 -0.02701,-0.03417 -0.03087,-0.03197 -0.0099,-0.0083 -0.0083,-0.0083 -0.01378,-0.01102 -0.0061,-0.0044 -0.01488,-0.01158 -0.01543,-0.01047 -0.0033,-0.0022 -0.01764,-0.01158 -0.01599,-0.0088 -0.0061,-0.0033 -0.01709,-0.0088 -0.01599,-0.0072 -0.0072,-0.0028 -0.01653,-0.0072 -0.01709,-0.0061 -0.0061,-0.0017 -0.01764,-0.0061 -0.01819,-0.0044 -0.0066,-0.0017 -0.01764,-0.0039 -0.0055,-5.64e-4 -0.01213,-0.0028 -0.01764,-0.0017 -0.0088,-0.0011 -0.01764,-0.0011 -0.0077,0 -0.01764,-0.0011 -0.0088,0 -0.0088,0 -0.01213,5.64e-4 -0.01378,5.65e-4 -0.0099,0.0011 -0.0083,5.65e-4 -0.01709,0.0022 -0.0077,0.0011 -0.0028,5.64e-4 -0.01543,0.0022 -0.01654,0.0044 -0.0083,0.0017 -0.04244,0.01213 -0.03969,0.01599 -0.0017,5.64e-4 -1.488281,0.578225 -0.04024,0.01819 -0.01268,0.0072 -0.0061,0.0028 -0.0072,0.0044 -0.01213,0.0066 -0.01047,0.0072 -0.0083,0.005 -0.03528,0.02481 -0.03307,0.02921 -0.0072,0.0077 -0.0077,0.0072 -0.01102,0.01268 -0.0039,0.0044 -0.005,0.0061 -0.0083,0.0099 -0.0077,0.01047 -0.0061,0.0077 -0.005,0.0072 -0.0072,0.0099 -0.0044,0.0077 -0.0077,0.01102 -0.0088,0.01599 -0.0016,0.0028 -0.0011,0.0028 -0.0094,0.01654 -0.01764,0.03969 -0.0055,0.01599 -0.0016,0.0044 -0.0016,0.0061 -0.0055,0.01599 -0.0033,0.01488 -0.0017,0.005 -0.0016,0.0083 -0.0033,0.01378 -0.0011,0.0066 -0.0028,0.01433 -0.0016,0.01764 -5.51e-4,0.0044 -5.5e-4,0.0083 -0.0011,0.01268 0,0.0094 -0.0011,0.01378 0,0.01047 0,0.01047 0.0011,0.01433 0,0.0077 5.5e-4,0.0055 0.0011,0.01653 0.0061,0.04299 0.0039,0.01378 0.0011,0.0072 0.01213,0.04189 0.01599,0.04079 0.365456,0.827374 0.0044,0.01102 0.0066,0.01268 0.01268,0.02591 0.01102,0.01819 0.428845,0.776662 0.0039,0.0083 0.02315,0.03693 0.513182,0.75792 5.65e-4,0.0011 0.01213,0.01654 0.01323,0.01764 0.0011,0.0011 0.0022,0.0028 0.575468,0.706106 0.0011,0.0011 0.0022,0.0028 0.02701,0.03032 0.639961,0.653741 5.65e-4,5.64e-4 5.64e-4,5.65e-4 0.0033,0.0033 0.02756,0.02591 0.0011,5.64e-4 0.0061,0.0055 0.688468,0.5898 0.0011,0.0011 0.0083,0.0061 0.02591,0.01984 0.01544,0.01047 0.7314631,0.520347 0.0011,0.0011 0.01158,0.0077 0.02315,0.01544 0.0083,0.0044 0.783828,0.457509 0.02095,0.01102 0.01819,0.0099 0.829028,0.389158 0.04024,0.01653 5.64e-4,0 0.847218,0.30813 0.01378,0.0061 0.03032,0.0094 0.01102,0.0039 0.0011,0 0.0039,0.0011 0.865959,0.229857 0.01599,0.005 0.03197,0.0066 0.0088,0.0022 0.0011,0 0.0022,5.65e-4 0.899584,0.15434 0.0441,0.0061 0.0011,0 5.64e-4,0 0.91171,0.07386 5.65e-4,0 0.04355,0.0022 5.64e-4,0 0.915018,-0.0077 0.0441,-0.0022 0.04299,-0.0072 0.04299,-0.0088 0.04079,-0.01378 0.04024,-0.01709 0.03914,-0.0204 0.03583,-0.0237 0.03528,-0.02701 0.03197,-0.03032 0.02866,-0.03197 0.02591,-0.03473 0.02315,-0.03693 0.01984,-0.03914 0.01599,-0.04024 0.01323,-0.04189 0.0088,-0.043 0.0061,-0.04299 0.0011,-0.04299 -0.0022,-0.0441 -0.0055,-0.04299 -0.01047,-0.04299 -0.01268,-0.04079 -0.01709,-0.04024 -0.02095,-0.03859 -0.02426,-0.03638 -0.02701,-0.03473 -0.02866,-0.03197 -0.03307,-0.02921 -0.03528,-0.02591 -0.03693,-0.02315 -0.03803,-0.01984 -0.04079,-0.01599 -0.04189,-0.01323 -0.04189,-0.0088 -0.04299,-0.0061 -0.0441,-0.0011 -0.887457,0.0083 -0.878637,-0.07166 -0.857158,-0.148535 -0.833988,-0.221589 -0.832336,-0.30427 -0.775008,-0.364905 -0.754063,-0.439319 -0.713273,-0.507669 -0.6631111,-0.567752 -0.604684,-0.620117 -0.552317,-0.677443 -0.487826,-0.722644 -0.420577,-0.761228 -0.146623,-0.332383 0.583186,-0.226549 0.16371,0.364904 5.65e-4,5.65e-4 0.0022,0.0061 0.01599,0.02921 0.0011,0.0028 5.64e-4,0.0011 0.0028,0.005 0.437665,0.758472 0.02315,0.03693 5.65e-4,5.64e-4 0.0033,0.0055 0.513181,0.709965 0.0077,0.0094 0.0072,0.01047 0.01158,0.01323 5.65e-4,5.64e-4 0.0011,0.0011 0.01599,0.01819 0.0066,0.0061 0.0061,0.0066 0.01819,0.01599 0.0011,0.0011 5.64e-4,5.65e-4 0.01323,0.01158 0.03528,0.02591 0.01102,0.0072 0.0099,0.0066 0.01047,0.0061 0.0055,0.0033 0.0039,0.0017 0.01819,0.01047 0.03969,0.01654 0.0022,5.65e-4 0.01488,0.0066 0.0215,0.0061 0.0028,0.0011 0.0044,0.0011 0.01323,0.0039 0.0088,0.0017 0.01654,0.0044 0.01323,0.0017 0.0044,0.0011 0.01047,0.0011 0.01488,0.0022 0.0077,5.65e-4 0.0099,0.0011 0.01323,5.65e-4 0.01213,5.64e-4 0.0094,0 0.0094,0 0.02536,-0.0011 0.0033,-5.65e-4 0.01433,-5.64e-4 0.02425,-0.0039 0.0011,0 0.01764,-0.0028 0.0077,-0.0017 0.01764,-0.0033 0.01764,-0.005 0.005,-0.0017 0.01929,-0.0055 0.0083,-0.0033 0.0088,-0.0028 0.0094,-0.0044 0.01433,-0.0055 0.03914,-0.01929 0.0066,-0.0044 0.0094,-0.0044 0.02095,-0.01378 0.0011,-5.65e-4 0.01378,-0.0094 0.0204,-0.01599 2.6937891,-2.161315 0.01929,-0.01653 0.0017,0.0017 0.08489,0.08489 0.243086,0.22214 0.09205,0.07772 0.260725,0.200091 0.09922,0.0689 0.277261,0.17694 0.104731,0.06008 0.292144,0.152135 0.109141,0.05126 0.30372,0.125677 0.112999,0.04134 0.314193,0.09867 0.116857,0.03197 0.320807,0.07111 0.119063,0.02095 0.326319,0.04299 0.119614,0.0099 0.329076,0.01543 0.120165,0 0.329075,-0.01543 0.119614,-0.0099 0.326319,-0.04299 0.119063,-0.02095 0.320807,-0.07111 0.116858,-0.03197 0.314192,-0.09867 0.113,-0.04134 0.30427,-0.125677 0.10859,-0.05126 0.292144,-0.152135 0.105282,-0.06008 0.27671,-0.17694 0.09922,-0.0689 0.260725,-0.200091 0.09205,-0.07772 0.243085,-0.22214 0.08489,-0.08489 0.222139,-0.243086 0.07772,-0.09205 0.200091,-0.260725 0.0689,-0.09922 0.17694,-0.276709 0.06008,-0.105283 0.104731,-0.200642 0.02536,0.01047 2.729068,1.062744 -0.128433,0.286631 -0.420577,0.728707 -0.493889,0.682956 -0.02425,0.03638 -0.0061,0.01158 -0.0028,0.0044 -0.0066,0.01323 -0.0044,0.0088 -0.0033,0.0077 -0.0044,0.0088 -0.0022,0.0055 -0.0083,0.01874 -0.0044,0.01433 -0.0011,0.0028 -0.0028,0.0094 -0.0044,0.01433 -0.0011,0.0055 -0.0039,0.01268 -0.0094,0.04189 -0.0017,0.01929 -0.0011,0.0066 -5.64e-4,0.01378 -5.65e-4,0.0044 0,0.0066 -0.0011,0.01819 0,0.0094 0,0.0088 5.64e-4,0.0094 5.65e-4,0.01654 0.005,0.04299 0.0022,0.0099 0.0011,0.0083 0.0039,0.01433 0.0022,0.01047 0.01158,0.04134 0.01599,0.04079 0.0077,0.01543 5.65e-4,5.65e-4 0.0022,0.0044 0.0099,0.01874 0.0022,0.0033 0.0066,0.01268 0.0099,0.01488 0.0039,0.0061 0.0033,0.005 0.0072,0.0099 0.01543,0.01929 5.65e-4,5.65e-4 0,5.64e-4 0.01158,0.01378 0.0099,0.01047 0.0072,0.0083 0.0066,0.0066 0.0066,0.0066 0.0072,0.0061 0.01158,0.01102 0.03418,0.02701 5.65e-4,0 1.245195,0.999905 0.01047,0.0077 0.0077,0.0061 0.0072,0.005 0.0099,0.0072 0.01102,0.0072 0.0077,0.005 0.005,0.0028 0.01323,0.0083 0.01378,0.0066 0.0061,0.0033 0.01047,0.0044 0.0088,0.0044 0.0077,0.0033 0.01323,0.0055 0.01488,0.0055 0.005,0.0017 0.0033,0.0011 0.01764,0.0061 0.01874,0.0044 0.0022,5.64e-4 0.005,0.0011 0.01709,0.0039 0.0066,0.0011 0.01433,0.0028 0.04299,0.0044 0.0441,5.65e-4 0.02205,-5.65e-4 0.01323,-0.0017 0.0077,-5.64e-4 0.043,-0.0061 0.01323,-0.0033 0.0088,-0.0017 0.04189,-0.01213 0.0204,-0.0077 0.0039,-0.0017 0.01709,-0.0066 0.0088,-0.0044 0.0099,-0.0044 0.03803,-0.02095 0.0088,-0.0061 0.01047,-0.0061 0.03473,-0.02591 0.03307,-0.02921 0.01488,-0.01488 0.0061,-0.0066 0.0088,-0.0094 0.005,-0.0066 0.0094,-0.01047 0.02591,-0.03473 0.0044,-0.0077 0.523655,-0.713272 0.01213,-0.01874 0.01268,-0.01929 0.471841,-0.784379 0.0215,-0.03803 0,-5.64e-4 0.39467,-0.814145 0.0061,-0.01102 0.0094,-0.02205 0.0077,-0.01709 0,-0.0011 0.324666,-0.854935 0.01433,-0.04189 0,-0.0011 0.244188,-0.87092 0.0039,-0.01102 0.0088,-0.04189 0,-0.0011 0.16812,-0.900135 0,-0.0011 0.0061,-0.04189 0,-0.0011 0,-5.65e-4 0.08433,-0.891315 0.0028,-0.02095 0.0017,-0.04189 0,-5.64e-4 0,-5.65e-4 0.0039,-0.91612 0,-5.64e-4 -5.64e-4,-0.04244 -0.0028,-0.01874 -0.07552,-0.894071 0,-0.0022 -0.0011,-0.0088 -0.0039,-0.03307 -0.0033,-0.01488 -0.155442,-0.886906 -0.01047,-0.04299 0,-0.0011 -0.237573,-0.884149 -0.01433,-0.04079 0,-0.0011 -0.315846,-0.858793 -0.01709,-0.04134 -0.0044,-0.0077 -0.384198,-0.810838 -0.0044,-0.01047 -0.01102,-0.01984 -0.0088,-0.01709 -0.0011,-0.0011 -0.464124,-0.788789 -0.0237,-0.03693 -0.02701,-0.03418 -0.03032,-0.03197 -0.03197,-0.02866 -0.03473,-0.02701 -0.03693,-0.02315 -0.03914,-0.01984 -0.04024,-0.01599 -0.04189,-0.01323 -0.04189,-0.0088 -0.0441,-0.005 -0.043,-0.0022 -0.0441,0.0028 -0.04299,0.0061 -0.043,0.0094 -0.04079,0.01378 -0.04024,0.01709 -0.03858,0.01984 -0.03638,0.02425 -0.03473,0.02701 -0.03197,0.02977 -0.02921,0.03197 -0.02591,0.03528 -0.02315,0.03693 -0.01984,0.03858 -0.01599,0.04024 -0.01323,0.04189 -0.0088,0.04299 -0.0061,0.04299 -0.0011,0.0441 0.0022,0.043 0.0061,0.04299 0.0099,0.04299 0.01378,0.04079 0.01709,0.04024 0.0204,0.03914 0.45806,0.779418 0.36766,0.776662 0.298208,0.807531 0.229305,0.846667 0.152136,0.868715 0.07221,0.854935 -0.0039,0.87533 -0.08158,0.863754 -0.159852,0.858242 -0.235369,0.83895 -0.309232,0.814145 -0.375929,0.77556 -0.45365,0.753511 -0.218281,0.298208 -0.487274,-0.390812 0.234266,-0.324666 0.0039,-0.0061 0.01929,-0.03032 0.0039,-0.0066 0.437664,-0.758472 0.0033,-0.0061 0.0011,-0.0028 0.01599,-0.02921 0.0028,-0.0066 0,-5.64e-4 0.358841,-0.798711 0.0094,-0.02315 0,-5.64e-4 0.0066,-0.01599 0.01213,-0.04244 0.0022,-0.01047 0.0039,-0.01433 0.0011,-0.0088 0.0022,-0.0094 0.005,-0.04299 5.64e-4,-0.02591 0,-0.01764 -5.64e-4,-0.0088 0,-0.01654 -5.65e-4,-0.0066 -5.64e-4,-0.01102 -0.0017,-0.01102 -0.0017,-0.01433 -0.0088,-0.04299 -0.005,-0.01764 -0.0017,-0.005 -0.0055,-0.01929 -0.0033,-0.0083 -0.0028,-0.0088 -0.0055,-0.01213 -0.0044,-0.01158 -0.01874,-0.03914 -0.0061,-0.0099 -0.0033,-0.0061 -0.01378,-0.02095 -5.64e-4,-0.0011 -0.0094,-0.01378 -0.01599,-0.0204 -0.0017,-0.0022 -0.0094,-0.01158 -0.0077,-0.0083 -0.0094,-0.01102 -0.0066,-0.0061 -0.0061,-0.0066 -0.01929,-0.01709 -5.64e-4,-5.64e-4 -0.01323,-0.01158 -0.0088,-0.0066 -0.01158,-0.0094 -0.01488,-0.0099 -0.0022,-0.0017 -0.01874,-0.01213 -0.0083,-0.005 -0.0077,-0.0044 -0.02205,-0.01158 -0.005,-0.0022 -0.01213,-0.0061 -0.03969,-0.01598 -0.005,-0.0017 -3.19705,-1.244093 -0.0248,-0.0083 5.64e-4,-0.0022 0.03197,-0.116858 0.07111,-0.320807 0.02095,-0.119063 0.043,-0.326319 0.0099,-0.119614 0.01544,-0.329076 0,-0.120164 -0.01544,-0.329076 -0.0099,-0.119614 -0.043,-0.326319 -0.02095,-0.119063 -0.07111,-0.320807 -0.03197,-0.116858 -0.09867,-0.314193 -0.04134,-0.112999 -0.125676,-0.30372 -0.05126,-0.10914 -0.152135,-0.292144 -0.06008,-0.104731 -0.176941,-0.277262 -0.0689,-0.09922 -0.200091,-0.260724 -0.07772,-0.09205 -0.22214,-0.243086 -0.08489,-0.08489 -0.243086,-0.22214 -0.09205,-0.07772 -0.260724,-0.200091 -0.09922,-0.0689 -0.27671,-0.17694 -0.105282,-0.06008 -0.292145,-0.152136 -0.108589,-0.05071 -0.304271,-0.126228 -0.112999,-0.04079 -0.314193,-0.09922 -0.116857,-0.03197 -0.320807,-0.07111 -0.119063,-0.02095 -0.326319,-0.04299 -0.119614,-0.0099 -0.329076,-0.01488 -0.120165,0 -0.226549,0.01047 -0.0022,-0.02756 -0.445933,-2.893329 0.32632,-0.03362 0.816901,0 0.849422,0.08709 0.04299,0.0017 0.0099,0 0.0094,0 0.01213,-5.64e-4 0.01268,-5.65e-4 0.0094,-0.0011 0.0088,-5.64e-4 0.04299,-0.0061 0.0248,-0.0061 0.005,-0.0017 0.01323,-0.0033 0.0237,-0.0083 0.0011,-5.65e-4 0.01599,-0.0055 0.04024,-0.01654 0.03803,-0.02095 0.0094,-0.0066 0.01268,-0.0077 0.03473,-0.02591 0.01323,-0.01213 0.01874,-0.01709 0.0028,-0.0033 0.01047,-0.0094 0.01709,-0.01929 0.0044,-0.0061 0.0072,-0.0077 0.0044,-0.0061 0.01102,-0.01378 0.0099,-0.01544 5.64e-4,-5.64e-4 0.01323,-0.02095 0.0088,-0.01543 0.0033,-0.0061 0.0088,-0.01654 0.0072,-0.01599 0.0039,-0.0099 0.0061,-0.01433 0.0061,-0.01709 0.0017,-0.0061 0.0061,-0.01764 0.01047,-0.04299 0.0017,-0.01268 0.0011,-0.0055 0.246945,-1.604037 5.64e-4,-0.0061 0.0028,-0.01709 0.0017,-0.04299 0,-0.01047 0,-0.01047 -0.0017,-0.0441 -0.0028,-0.01709 -5.64e-4,-0.005 -0.0022,-0.0094 -0.0017,-0.01158 -0.005,-0.02205 -0.0017,-0.005 -0.0033,-0.01488 -0.005,-0.01488 -0.0022,-0.0072 -0.0028,-0.0061 -0.0044,-0.01378 -0.01764,-0.04024 -0.0099,-0.01874 -0.0044,-0.0066 -0.0066,-0.01268 -0.0072,-0.01047 -0.005,-0.0083 -0.0061,-0.0083 -0.0061,-0.0088 -0.0066,-0.0083 -0.0072,-0.0094 -0.01433,-0.01654 -0.01488,-0.01654 -0.0061,-0.0061 -0.0088,-0.0094 -0.0055,-0.0044 -0.01047,-0.01047 -0.03418,-0.02701 -0.01819,-0.01213 -0.03693,-0.0226 -0.03858,-0.01929 -0.01378,-0.0055 -0.0077,-0.0033 -0.01047,-0.0033 -0.0094,-0.0039 -0.0093,-0.0028 -0.01158,-0.0039 -0.01213,-0.0028 -0.0088,-0.0028 -0.04189,-0.0088 -0.0441,-0.0039 -0.889111,-0.09701 -0.0011,0 -0.043,-0.0033 -0.915569,-0.01654 -0.0011,0 -5.65e-4,0 z m 0.261827,8.342643 0.21332,0.0099 0.201194,0.02646 0.202296,0.04465 0.196232,0.06174 0.192926,0.07993 0.187413,0.09701 0.173081,0.110243 0.170326,0.131189 0.149931,0.137253 0.08158,0.0893 -1.208815,0.697838 -0.02866,-0.01819 -0.08213,-0.043 -0.08489,-0.03528 -0.0893,-0.02811 -0.08985,-0.01984 -0.09205,-0.01213 -0.09205,-0.0039 -0.09205,0.0039 -0.09205,0.01213 -0.08985,0.01984 -0.08875,0.02811 -0.08544,0.03528 -0.08158,0.043 -0.02866,0.01819 -1.209367,-0.697838 0.08158,-0.0893 0.152136,-0.138906 0.168672,-0.129536 0.170325,-0.109141 0.189618,-0.09812 0.192374,-0.07937 0.197887,-0.06229 0.202296,-0.0452 0.200091,-0.02646 0.212218,-0.0094 z m -2.267149,1.653646 1.209367,0.697839 -0.0017,0.03362 0.0039,0.09205 0.01213,0.09205 0.01984,0.08985 0.02811,0.0893 0.03528,0.08489 0.04299,0.08213 0.04961,0.07772 0.05622,0.07331 0.06174,0.0689 0.06945,0.06174 0.07276,0.05622 0.07827,0.04961 0.02977,0.01544 0,1.39678 -0.120165,-0.02646 -0.190721,-0.06063 -0.194579,-0.08048 -0.189067,-0.09812 -0.171429,-0.109686 -0.16812,-0.128985 -0.153238,-0.140008 -0.136702,-0.148828 -0.130638,-0.170877 -0.110794,-0.173633 -0.09701,-0.187413 -0.07993,-0.192374 -0.06174,-0.196233 -0.0452,-0.202847 -0.02591,-0.19954 -0.0099,-0.214423 0.0094,-0.211666 0.02646,-0.200643 0.0452,-0.202296 0.03638,-0.116306 z m 4.535951,5.65e-4 0.03473,0.109691 0.04575,0.207809 0.02701,0.201744 0.0094,0.211116 -0.0099,0.214423 -0.02591,0.199539 -0.04575,0.206706 -0.06063,0.190721 -0.08048,0.194579 -0.09701,0.187413 -0.110243,0.173081 -0.131189,0.170326 -0.137804,0.150482 -0.149379,0.137252 -0.170877,0.130638 -0.173633,0.110795 -0.187413,0.09701 -0.193477,0.08048 -0.190169,0.06008 -0.121267,0.02701 0,-1.396228 0.03032,-0.01599 0.07772,-0.04961 0.07331,-0.05622 0.0689,-0.06174 0.06174,-0.0689 0.05622,-0.07331 0.04961,-0.07772 0.04299,-0.08213 0.03528,-0.08489 0.02811,-0.0893 0.01984,-0.08985 0.01213,-0.09205 0.0039,-0.09205 -0.0017,-0.03307 1.209918,-0.697839 z"
       id="path5" />
    <path
       inkscape:connector-curvature="0"
       style="opacity:1;fill:#000000;fill-opacity:1;stroke:none;stroke-opacity:1"
       d="m 15.991094,-51.28264 -0.972895,0.04244 -0.0039,5.51e-4 -0.963525,0.12733 -0.0033,0 -0.005,0.0011 -0.0044,5.51e-4 -0.0039,0.0011 -0.94368,0.20891 -0.0044,0.0011 -0.005,0.0011 -0.0039,0.0011 -0.0039,0.0011 -0.0039,0.0016 -0.922183,0.289939 -0.0039,0.0011 -0.0044,0.0022 -0.0039,0.0017 -0.89793,0.371519 -0.0039,0.0016 -0.0044,0.0022 -0.0028,0.0016 -0.0039,0.0022 -0.858243,0.445934 -0.0039,0.0022 -0.0039,0.0017 -0.8262711,0.526961 -0.0028,0.0022 -0.0044,0.0033 -5.65e-4,5.51e-4 -0.773355,0.593107 -0.0028,0.0022 -0.723194,0.66201 -0.0028,0.0028 -0.66201,0.723194 -0.0022,0.0028 -0.593107,0.773355 -5.51e-4,5.65e-4 -0.0033,0.0044 -0.0022,0.0028 -0.526961,0.826271 -0.0016,0.0039 -0.0022,0.0039 0,0.0011 -0.445933,0.85714 -0.0022,0.0039 -0.0016,0.0028 -0.0022,0.0044 -0.0016,0.0039 0,5.64e-4 -0.37152,0.897379 -0.0017,0.0039 -0.0022,0.0044 -0.0011,0.0039 -0.291041,0.924939 -5.51e-4,0.0011 -0.0011,0.0039 -0.0011,0.0039 -0.0011,0.005 -0.0011,0.0044 0,5.65e-4 -0.20891,0.943129 -0.0011,0.0039 -5.5e-4,0.0044 -0.0011,0.005 0,0.0039 -0.127331,0.962974 -5.51e-4,0.0039 0,0.0044 -0.04244,0.968485 0,0.0011 0,0.005 0,0.0044 0,0.005 0,0.0011 0.04244,0.969037 0,0.0039 5.51e-4,0.0039 0.127331,0.963524 0,0.0033 0.0011,0.005 5.5e-4,0.0044 0.0011,0.0039 0.20891,0.943129 0,0.0011 0.0011,0.0039 0.0011,0.005 0.0011,0.0039 0.0011,0.0039 0.0017,0.0044 0.28994,0.921632 0.0011,0.0044 0.0022,0.0039 0.0017,0.0039 0.371519,0.897378 0,5.65e-4 0.0016,0.0039 0.0022,0.0044 0.0016,0.0028 0.0022,0.0039 0.445933,0.85714 0,0.0011 0.0022,0.0039 0.0016,0.0039 0.526962,0.826272 0.0022,0.0028 0.0033,0.0044 5.5e-4,5.65e-4 0.590352,0.769496 0.0028,0.0039 0.0022,0.0028 0.662009,0.723194 0.0028,0.0028 0.723195,0.66201 0.0028,0.0022 0.772252,0.592557 0.0017,0.0017 0.0044,0.0028 0.0028,0.0022 0.8262721,0.526962 0.0039,0.0017 0.0039,0.0022 0.858243,0.445933 0.0039,0.0022 0.0028,0.0017 0.0044,0.0022 0.0039,0.0022 0.0022,0 0.895724,0.370968 0.0039,0.0017 0.0044,0.0022 0.0039,0.0011 0.0039,0.0011 0.921081,0.28994 0.0011,5.64e-4 0.0039,0.0011 0.0039,0.0011 0.005,0.0011 0.0044,0.0011 5.65e-4,0 0.943129,0.20891 0.0039,0.0011 0.0044,0.0011 0.005,5.64e-4 0.966831,0.127331 0.0039,0.0011 0.972895,0.04189 0.0011,0 0.005,0 0.0044,0 0.005,0 0.0011,0 0.969036,-0.04189 0.0039,0 0.0039,-0.0011 0.966832,-0.127331 0.005,-5.64e-4 0.0044,-0.0011 0.0039,-0.0011 0.953051,-0.211115 0.0039,-0.0011 0.0055,-0.0017 0.0028,-0.0011 0.921632,-0.289939 0.0044,-0.0011 0.0039,-0.0022 0.0039,-0.0017 0.895725,-0.370968 0.0022,0 0.0039,-0.0022 0.0044,-0.0022 0.0028,-0.0017 0.0039,-0.0022 0.862101,-0.448138 0.0039,-0.0017 0.826272,-0.526962 0.0028,-0.0022 0.0044,-0.0028 0.0017,-0.0017 0.768395,-0.5898 0.0039,-0.0028 0.0028,-0.0022 0.723195,-0.66201 0.0028,-0.0028 0.66201,-0.723195 0.0022,-0.0028 0.0028,-0.0039 0.589801,-0.768394 0.0017,-0.0017 0.0028,-0.0044 0.0022,-0.0028 0.526962,-0.826271 0.0017,-0.0039 0.448138,-0.862101 0.0022,-0.0039 0.0017,-0.0028 0.0022,-0.0044 0.0022,-0.0039 0,-0.0022 0.370968,-0.895725 0.0017,-0.0039 0.0022,-0.0039 0.0011,-0.0044 0.28994,-0.921632 0.0011,-0.0028 0.0017,-0.0055 0.0011,-0.0039 0.211116,-0.953051 0.0011,-0.0039 0.0011,-0.0044 5.64e-4,-0.005 0.127331,-0.966832 0.0011,-0.0039 0,-0.0039 0.04189,-0.969036 0,-0.0061 0,-0.0044 0,-0.0061 -0.04189,-0.968485 0,-0.0044 -0.0011,-0.0039 -0.127331,-0.966832 -5.64e-4,-0.005 -0.0011,-0.0044 -0.0011,-0.0039 -0.208911,-0.94368 -0.0022,-0.0094 -0.0011,-0.0039 -0.0017,-0.005 -0.0011,-0.0028 -0.288837,-0.918325 -0.0011,-0.0039 -0.0011,-0.0039 -0.0022,-0.0044 -0.0017,-0.0039 -0.370969,-0.895725 0,-0.0022 -0.0022,-0.0039 -0.0022,-0.0044 -0.0017,-0.0028 -0.0022,-0.0039 -0.448138,-0.862101 -0.0017,-0.0039 -0.526962,-0.826272 -0.0022,-0.0028 -0.0028,-0.0044 -0.0017,-0.0017 -0.592557,-0.772252 -0.0022,-0.0028 -0.66201,-0.723195 -0.0028,-0.0028 -0.723195,-0.662009 -0.0028,-0.0022 -0.0039,-0.0028 -0.770047,-0.590903 -0.0044,-0.0033 -0.0028,-0.0022 -0.826273,-0.526962 -0.0039,-0.0017 -0.0039,-0.0022 -0.0011,0 -0.85714,-0.445933 -0.0039,-0.0022 -0.0028,-0.0016 -0.0044,-0.0022 -0.0039,-0.0016 -5.64e-4,0 -0.897379,-0.371519 -0.0039,-0.0016 -0.0039,-0.0022 -0.0044,-0.0011 -0.921632,-0.289939 -0.0028,-0.0011 -0.0055,-0.0017 -0.0039,-0.0011 -0.953052,-0.211116 -0.0039,-0.0011 -0.0044,-5.5e-4 -0.005,-0.0011 -0.0033,0 -5.64e-4,0 -0.962973,-0.127331 -0.0039,-5.5e-4 -0.973042,-0.04245 -0.0011,0 -0.005,0 -0.0044,0 -0.005,0 -0.0011,0 z m 0.0061,0.100321 0.972895,0.04134 0.0011,5.5e-4 0.972344,0.127882 0.951949,0.211116 0.9299,0.293797 5.64e-4,0 0.899584,0.372622 0.860998,0.448138 0.0017,0.0016 0.826273,0.525859 5.64e-4,0 0.773355,0.593659 0.0011,5.65e-4 0.713824,0.654844 0.0011,0.0011 0.6576,0.716579 0.0017,0.0022 0.595313,0.776663 5.64e-4,5.64e-4 0.524206,0.822965 5.64e-4,5.64e-4 0.448689,0.862101 0.372622,0.899583 0,5.65e-4 0.293798,0.931002 0.211115,0.950847 0.127882,0.972344 0,0.0011 0.04189,0.968486 0,0.0022 0,0.0022 -0.04134,0.968485 -5.64e-4,0.0011 -0.127882,0.972344 -0.211116,0.951948 -0.0011,0.0039 -0.292695,0.926042 0,5.65e-4 -0.373173,0.900685 -0.448138,0.860998 -5.65e-4,5.65e-4 -0.521449,0.819106 -0.0028,0.0044 -0.0022,0.0028 -0.593659,0.773907 -5.65e-4,0.0011 -0.652639,0.71217 -0.0028,0.0028 -0.0033,0.0033 -0.0028,0.0028 -0.71217,0.652639 -0.0011,5.64e-4 -0.776663,0.595864 -0.0044,0.0028 -0.819107,0.521449 -5.64e-4,5.65e-4 -0.865408,0.450342 -0.896827,0.370968 -0.926042,0.292695 -0.0039,0.0011 -0.0039,0.0011 -0.94809,0.210013 -0.972344,0.127882 -0.0011,5.64e-4 -0.968485,0.04134 -0.973997,-0.04189 -0.972344,-0.127882 -0.94809,-0.210013 -0.0039,-0.0011 -0.0039,-0.0011 -0.926042,-0.292695 -5.64e-4,0 -0.896277,-0.370968 -0.0033,-0.0017 -0.0011,-5.65e-4 -0.861549,-0.448689 -0.8191061,-0.52145 -0.0039,-0.0028 -5.65e-4,-5.64e-4 -0.0028,-0.0017 -0.773906,-0.593659 -0.0022,-0.0017 -5.64e-4,-5.65e-4 -0.715981,-0.657105 -0.0011,-0.0011 -0.0022,-0.0017 -0.65319,-0.713273 -0.593659,-0.773906 -0.0022,-0.0028 -0.0028,-0.0044 -0.520899,-0.819106 -0.0016,-0.0017 -0.447587,-0.859896 -0.373172,-0.901237 -0.292696,-0.926041 -0.0011,-0.0039 0,-0.0011 -0.0011,-0.0028 -0.210013,-0.94809 -0.127882,-0.972344 -0.04189,-0.969587 0,-0.0022 0,-0.0022 0.04189,-0.969588 0.127882,-0.972344 0.210013,-0.94809 0.0011,-0.0028 0,-0.0011 0.0011,-0.0039 0.292696,-0.926042 0,-5.64e-4 0.370968,-0.896276 0.0016,-0.0033 5.5e-4,-0.0011 0.447587,-0.859896 0.0016,-0.0017 0.520898,-0.819106 0.0028,-0.0039 5.65e-4,-5.65e-4 0.0017,-0.0028 0.593659,-0.773906 0.0017,-0.0022 5.64e-4,-5.64e-4 0.654292,-0.713273 0.0017,-0.0011 0.0011,-0.0017 0.713273,-0.654292 5.64e-4,-5.65e-4 0.0022,-0.0017 0.773907,-0.593659 0.0028,-0.0017 5.64e-4,-5.64e-4 0.0039,-0.0028 0.8191061,-0.520898 0.0017,-0.0016 0.859896,-0.447587 0.0011,-5.51e-4 0.0033,-0.0016 0.896827,-0.370967 0.926042,-0.292696 0.0039,-0.0011 0.0039,-0.0011 0.94809,-0.210013 0.972344,-0.127882 0.0011,0 0.968485,-0.04189 z"
       id="path429-7" />
    <path
       inkscape:connector-curvature="0"
       d="m 46.399693,-12.000867 -0.009,-0.209 -0.027,-0.208 -0.046,-0.204 -0.063,-0.2 -0.08,-0.193 -0.097,-0.186 -0.112,-0.176999 -0.127,-0.166 -0.142,-0.154 -0.154,-0.142 -0.166,-0.127 -0.177,-0.112 -0.186,-0.097 -0.193,-0.08 -0.2,-0.063 -0.204,-0.046 -0.208,-0.027 -0.209,-0.009 -0.209,0.009 -0.208,0.027 -0.204,0.046 -0.2,0.063 -0.193,0.08 -0.186,0.097 -0.177,0.112 -0.166,0.127 -0.154,0.142 -0.142,0.154 -0.127001,0.166 -0.112,0.176999 -0.097,0.186 -0.08,0.193 -0.063,0.2 -0.046,0.204 -0.027,0.208 -0.009,0.209 0.009,0.209 0.027,0.208 0.046,0.204 0.063,0.2 0.08,0.193001 0.097,0.185999 0.112,0.177 0.127001,0.166 0.142,0.154 0.154,0.142 0.166,0.127 0.177,0.1120005 0.186,0.097 0.193,0.08 0.2,0.063 0.204,0.046 0.208,0.027 0.209,0.009 0.209,-0.009 0.208,-0.027 0.204,-0.046 0.2,-0.063 0.193,-0.08 0.186,-0.097 0.177,-0.1120005 0.166,-0.127 0.154,-0.142 0.142,-0.154 0.127,-0.166 0.112,-0.177 0.097,-0.185999 0.08,-0.193001 0.063,-0.2 0.046,-0.204 0.027,-0.208 z"
       id="path286-3"
       style="opacity:1;fill:#000000;fill-opacity:1;stroke:none;stroke-opacity:1" />
    <path
       inkscape:connector-curvature="0"
       style="opacity:1;fill:#000000;fill-opacity:1;stroke:none;stroke-opacity:1"
       d="m 43.991382,-23.282082 -0.972895,0.04244 -0.0039,5.5e-4 -0.963525,0.127331 -0.0033,0 -0.005,0.0011 -0.0044,5.5e-4 -0.0039,0.0011 -0.943681,0.208911 -0.0044,0.0011 -0.005,0.0011 -0.0039,0.0011 -0.0039,0.0011 -0.0039,0.0017 -0.922183,0.289939 -0.0039,0.0011 -0.0044,0.0022 -0.0039,0.0017 -0.89793,0.371519 -0.0039,0.0016 -0.0044,0.0022 -0.0028,0.0016 -0.0039,0.0022 -0.858242,0.445933 -0.0039,0.0022 -0.0039,0.0017 -0.826272,0.526962 -0.0028,0.0022 -0.0044,0.0033 -5.65e-4,5.51e-4 -0.773355,0.593107 -0.0028,0.0022 -0.723194,0.66201 -0.0028,0.0028 -0.662009,0.723194 -0.0022,0.0028 -0.593108,0.773355 -5.5e-4,5.64e-4 -0.0033,0.0044 -0.0022,0.0028 -0.526962,0.826272 -0.0016,0.0039 -0.0022,0.0039 0,0.0011 -0.445933,0.85714 -0.0022,0.0039 -0.0016,0.0028 -0.0022,0.0044 -0.0016,0.0039 0,5.64e-4 -0.371519,0.897379 -0.0017,0.0039 -0.0022,0.0044 -0.0011,0.0039 -0.291042,0.924939 -5.5e-4,0.0011 -0.0011,0.0039 -0.0011,0.0039 -0.0011,0.005 -0.0011,0.0044 0,5.64e-4 -0.208911,0.94313 -0.0011,0.0039 -5.5e-4,0.0044 -0.0011,0.005 0,0.0039 -0.127331,0.962973 -5.5e-4,0.0039 0,0.0044 -0.04244,0.968485 0,0.0011 0,0.005 0,0.0044 0,0.005 0,0.0011 0.04244,0.969037 0,0.0039 5.5e-4,0.0039 0.127331,0.963524 0,0.0033 0.0011,0.005 5.5e-4,0.0044 0.0011,0.0039 0.208911,0.9431295 0,0.0011 0.0011,0.0039 0.0011,0.005 0.0011,0.0039 0.0011,0.0039 0.0016,0.0044 0.289939,0.921632 0.0011,0.0044 0.0022,0.0039 0.0017,0.0039 0.371519,0.897378 0,5.65e-4 0.0016,0.0039 0.0022,0.0044 0.0016,0.0028 0.0022,0.0039 0.445933,0.85714 0,0.0011 0.0022,0.0039 0.0016,0.0039 0.526962,0.8262722 0.0022,0.0028 0.0033,0.0044 5.5e-4,5.65e-4 0.590352,0.769496 0.0028,0.0039 0.0022,0.0028 0.66201,0.723194 0.0028,0.0028 0.723194,0.66201 0.0028,0.0022 0.772253,0.592557 0.0017,0.0017 0.0044,0.0028 0.0028,0.0022 0.826271,0.526962 0.0039,0.0017 0.0039,0.0022 0.858243,0.445933 0.0039,0.0022 0.0028,0.0017 0.0044,0.0022 0.0039,0.0022 0.0022,0 0.895725,0.370968 0.0039,0.0017 0.0044,0.0022 0.0039,0.0011 0.0039,0.0011 0.92108,0.28994 0.0011,5.64e-4 0.0039,0.0011 0.0039,0.0011 0.005,0.0011 0.0044,0.0011 5.65e-4,0 0.943129,0.20890996 0.0039,0.0011 0.0044,0.0011 0.005,5.64e-4 0.966831,0.127331 0.0039,0.0011 0.972895,0.04189 0.0011,0 0.005,0 0.0044,0 0.005,0 0.0011,0 0.969036,-0.04189 0.0039,0 0.0039,-0.0011 0.966832,-0.127331 0.005,-5.64e-4 0.0044,-0.0011 0.0039,-0.0011 0.953051,-0.21111496 0.0039,-0.0011 0.0055,-0.0017 0.0028,-0.0011 0.921632,-0.289939 0.0044,-0.0011 0.0039,-0.0022 0.0039,-0.0017 0.895725,-0.370968 0.0022,0 0.0039,-0.0022 0.0044,-0.0022 0.0028,-0.0017 0.0039,-0.0022 0.862101,-0.448138 0.0039,-0.0017 0.826271,-0.526962 0.0028,-0.0022 0.0044,-0.0028 0.0017,-0.0017 0.768395,-0.5898 0.0039,-0.0028 0.0028,-0.0022 0.723195,-0.66201 0.0028,-0.0028 0.66201,-0.723195 0.0022,-0.0028 0.0028,-0.0039 0.589801,-0.768394 0.0017,-0.0017 0.0028,-0.0044 0.0022,-0.0028 0.526962,-0.8262712 0.0017,-0.0039 0.448138,-0.862101 0.0022,-0.0039 0.0017,-0.0028 0.0022,-0.0044 0.0022,-0.0039 0,-0.0022 0.370968,-0.895725 0.0017,-0.0039 0.0022,-0.0039 0.0011,-0.0044 0.28994,-0.921632 0.0011,-0.0028 0.0017,-0.0055 0.0011,-0.0039 0.211116,-0.9530515 0.0011,-0.0039 0.0011,-0.0044 5.64e-4,-0.005 0.127331,-0.966832 0.0011,-0.0039 0,-0.0039 0.04189,-0.969036 0,-0.0061 0,-0.0044 0,-0.0061 -0.04189,-0.968485 0,-0.0044 -0.0011,-0.0039 -0.127331,-0.966831 -5.64e-4,-0.005 -0.0011,-0.0044 -0.0011,-0.0039 -0.208911,-0.943681 -0.0022,-0.0094 -0.0011,-0.0039 -0.0017,-0.005 -0.0011,-0.0028 -0.288837,-0.918325 -0.0011,-0.0039 -0.0011,-0.0039 -0.0022,-0.0044 -0.0017,-0.0039 -0.370969,-0.895724 0,-0.0022 -0.0022,-0.0039 -0.0022,-0.0044 -0.0017,-0.0028 -0.0022,-0.0039 -0.448138,-0.862101 -0.0017,-0.0039 -0.526962,-0.826272 -0.0022,-0.0028 -0.0028,-0.0044 -0.0017,-0.0017 -0.592557,-0.772253 -0.0022,-0.0028 -0.66201,-0.723194 -0.0028,-0.0028 -0.723195,-0.66201 -0.0028,-0.0022 -0.0039,-0.0028 -0.770047,-0.590903 -0.0044,-0.0033 -0.0028,-0.0022 -0.826272,-0.526961 -0.0039,-0.0017 -0.0039,-0.0022 -0.0011,0 -0.85714,-0.445934 -0.0039,-0.0022 -0.0028,-0.0017 -0.0044,-0.0022 -0.0039,-0.0017 -5.64e-4,0 -0.897379,-0.371519 -0.0039,-0.0017 -0.0039,-0.0022 -0.0044,-0.0011 -0.921632,-0.289939 -0.0028,-0.0011 -0.0055,-0.0017 -0.0039,-0.0011 -0.953052,-0.211115 -0.0039,-0.0011 -0.0044,-5.51e-4 -0.005,-0.0011 -0.0033,0 -5.64e-4,0 -0.962973,-0.12733 -0.0039,-5.51e-4 -0.973042,-0.04245 -0.0011,0 -0.005,0 -0.0044,0 -0.005,0 -0.0011,0 z m 0.0061,0.100322 0.972895,0.04134 0.0011,5.5e-4 0.972344,0.127882 0.951949,0.211115 0.9299,0.293798 5.64e-4,0 0.899584,0.372622 0.860998,0.448138 0.0017,0.0017 0.826272,0.525859 5.64e-4,0 0.773355,0.593659 0.0011,5.65e-4 0.713824,0.654843 0.0011,0.0011 0.6576,0.71658 0.0017,0.0022 0.595313,0.776663 5.64e-4,5.64e-4 0.524206,0.822964 5.64e-4,5.65e-4 0.448689,0.862101 0.372622,0.899583 0,5.65e-4 0.293798,0.931002 0.211115,0.950846 0.127882,0.972345 0,0.0011 0.04189,0.968486 0,0.0022 0,0.0022 -0.04134,0.968485 -5.64e-4,0.0011 -0.127882,0.972344 -0.211116,0.9519485 -0.0011,0.0039 -0.292695,0.926042 0,5.65e-4 -0.373173,0.900685 -0.448138,0.860998 -5.65e-4,5.65e-4 -0.521449,0.8191058 -0.0028,0.0044 -0.0022,0.0028 -0.593659,0.773907 -5.65e-4,0.0011 -0.652639,0.71217 -0.0028,0.0028 -0.0033,0.0033 -0.0028,0.0028 -0.71217,0.652639 -0.0011,5.64e-4 -0.776663,0.595864 -0.0044,0.0028 -0.819106,0.521449 -5.64e-4,5.65e-4 -0.865408,0.450342 -0.896827,0.370968 -0.926042,0.292695 -0.0039,0.0011 -0.0039,0.0011 -0.94809,0.21001296 -0.972344,0.127882 -0.0011,5.64e-4 -0.968485,0.04134 -0.973997,-0.04189 -0.972344,-0.127882 -0.948091,-0.21001296 -0.0039,-0.0011 -0.0039,-0.0011 -0.926042,-0.292695 -5.64e-4,0 -0.896276,-0.370968 -0.0033,-0.0017 -0.0011,-5.65e-4 -0.86155,-0.448689 -0.819106,-0.52145 -0.0039,-0.0028 -5.64e-4,-5.64e-4 -0.0028,-0.0017 -0.773906,-0.593659 -0.0022,-0.0017 -5.65e-4,-5.65e-4 -0.715981,-0.657105 -0.0011,-0.0011 -0.0022,-0.0017 -0.65319,-0.713273 -0.593659,-0.773906 -0.0022,-0.0028 -0.0028,-0.0044 -0.520898,-0.8191058 -0.0016,-0.0017 -0.447587,-0.859896 -0.373173,-0.901237 -0.292695,-0.926041 -0.0011,-0.0039 0,-0.0011 -0.0011,-0.0028 -0.210013,-0.9480905 -0.127882,-0.972344 -0.04189,-0.969587 0,-0.0022 0,-0.0022 0.04189,-0.969588 0.127882,-0.972344 0.210013,-0.94809 0.0011,-0.0028 0,-0.0011 0.0011,-0.0039 0.292695,-0.926042 0,-5.64e-4 0.370968,-0.896277 0.0016,-0.0033 5.5e-4,-0.0011 0.447587,-0.859896 0.0016,-0.0017 0.520898,-0.819106 0.0028,-0.0039 5.65e-4,-5.64e-4 0.0017,-0.0028 0.593659,-0.773906 0.0017,-0.0022 5.64e-4,-5.65e-4 0.654293,-0.713272 0.0017,-0.0011 0.0011,-0.0017 0.713272,-0.654292 5.65e-4,-5.65e-4 0.0022,-0.0017 0.773906,-0.593659 0.0028,-0.0017 5.64e-4,-5.64e-4 0.0039,-0.0028 0.819106,-0.520899 0.0017,-0.0017 0.859896,-0.447586 0.0011,-5.51e-4 0.0033,-0.0017 0.896828,-0.370968 0.926041,-0.292695 0.0039,-0.0011 0.0039,-0.0011 0.948091,-0.210013 0.972344,-0.127882 0.0011,0 0.968485,-0.04189 z"
       id="path393" />
    <path
       inkscape:connector-curvature="0"
       style="opacity:1;fill:#000000;fill-opacity:1;stroke:none;stroke-opacity:1"
       d="m 16.260638,-22.729326 -0.91612,0.01654 -0.0011,0 -0.04299,0.0033 -0.892969,0.09756 -0.04024,0.0033 -0.01599,0.0033 -0.0039,5.5e-4 -0.0099,0.0022 -0.01213,0.0028 -0.0088,0.0028 -0.01213,0.0028 -0.01158,0.0039 -0.0094,0.0028 -0.0083,0.0033 -0.01158,0.0039 -0.0099,0.0044 -0.01102,0.0044 -0.01599,0.0077 -0.0033,0.0017 -0.0022,0.0011 -0.01764,0.0088 -0.01653,0.0099 -0.0017,0.0011 -0.0039,0.0022 -0.01488,0.0094 -0.0044,0.0033 -0.01378,0.0088 -0.03417,0.02701 -0.01047,0.01047 -0.0055,0.0044 -0.0088,0.0094 -0.0061,0.0061 -0.0072,0.0077 -0.0077,0.0088 -0.01047,0.01268 -0.0033,0.0039 -0.0022,0.0028 -0.01213,0.01488 -0.0061,0.0088 -0.0061,0.0083 -0.0072,0.01213 -0.0044,0.0066 -0.0088,0.01488 -0.0022,0.0044 -5.64e-4,0.0017 -0.0099,0.01709 -0.01764,0.04024 -0.0044,0.01378 -0.0028,0.0061 -0.0022,0.0072 -0.005,0.01488 -0.0033,0.01488 -0.0017,0.005 -0.0017,0.0083 -0.0033,0.01378 -0.0011,0.0083 -0.0028,0.01268 -0.0011,0.0099 -0.0017,0.01213 -0.0011,0.01929 0,0.0016 0,0.0022 -0.0011,0.02095 0,0.01047 0,0.01047 0.0011,0.02095 0,0.0011 0,5.5e-4 0.0011,0.0204 0.0017,0.01158 0.0011,0.01158 0.246944,1.604037 0.0022,0.01158 0.0011,0.0066 0.0039,0.01653 0.0017,0.0083 0.0011,0.0039 0.0033,0.01433 0.0061,0.01764 0.0017,0.0061 0.0022,0.0061 0.0039,0.01102 0.0061,0.01433 0.0039,0.0099 0.0028,0.005 0.0044,0.01102 0.0088,0.01654 0.0033,0.0061 0.0033,0.005 0.0055,0.01047 0.0094,0.01378 0.0044,0.0077 0.0039,0.0055 0.0066,0.0099 0.0061,0.0072 0.0088,0.01268 0.02866,0.03307 0.01047,0.0099 0.0028,0.0028 0.01874,0.01709 0.01323,0.01213 0.03528,0.02591 0.0099,0.0061 0.01158,0.0083 0.03803,0.02095 0.04024,0.01653 0.01599,0.0055 0.0011,5.64e-4 0.0017,5.65e-4 0.02205,0.0077 0.01323,0.0033 0.005,0.0017 0.02481,0.0061 0.01544,0.0022 0.0028,5.64e-4 0.0077,0.0011 0.01709,0.0022 0.0088,5.65e-4 0.0094,0.0011 0.01268,5.64e-4 0.01213,5.64e-4 0.0094,0 0.0099,0 0.04299,-0.0017 0.849423,-0.08709 0.816901,0 0.326319,0.03362 -0.08764,0.569406 -0.0022,0.01709 -0.03969,-0.0033 -0.556176,-0.02481 -0.09812,0 -0.555625,0.02481 -0.09812,0.0083 -0.551215,0.07276 -0.09812,0.01709 -0.542947,0.120164 -0.09481,0.02591 -0.530269,0.167019 -0.0926,0.03362 -0.514284,0.21332 -0.08875,0.04189 -0.493338,0.255764 -0.08599,0.05016 -0.469084,0.298207 -0.08103,0.05678 -0.440972,0.337895 -0.07552,0.06394 -0.410104,0.37648 -0.0689,0.0689 -0.37648,0.410104 -0.06394,0.07552 -0.3378951,0.440973 -0.05678,0.08103 -0.298208,0.469084 -0.05016,0.08599 -0.255764,0.493338 -0.04189,0.08875 -0.21332,0.514284 -0.03362,0.0926 -0.167018,0.530269 -0.02591,0.09481 -0.120165,0.542947 -0.01709,0.09812 -0.07276,0.551215 -0.0083,0.09812 -0.02481,0.555625 0,0.09812 0.02481,0.556176 0.0083,0.09756 0.07276,0.551216 0.01709,0.09812 0.120165,0.542947 0.02591,0.09481 0.08103,0.2579695 -0.02095,0.0072 -1.004314,0.390812 -0.0072,0.0022 -0.03969,0.01599 -0.01213,0.0061 -0.005,0.0022 -0.0088,0.005 -0.01323,0.0066 -0.0077,0.0044 -0.0083,0.005 -0.01874,0.01213 -0.0022,0.0017 -0.0011,5.65e-4 -0.01378,0.0094 -0.01544,0.01268 -0.0044,0.0033 -0.0055,0.005 -0.0088,0.0072 -0.01102,0.01047 -0.0077,0.0066 -0.0028,0.0033 -0.01047,0.0094 -0.01047,0.01213 -0.0066,0.0072 -0.0094,0.01158 -0.0017,0.0022 -0.0017,0.0022 -0.01433,0.01819 -0.0094,0.01378 -5.65e-4,0.0011 -0.0017,0.0022 -0.01213,0.01874 -0.0033,0.0061 -0.0061,0.0099 -0.01874,0.03914 -0.0044,0.01158 -0.0055,0.01213 -0.0028,0.0088 -0.0033,0.0083 -0.0055,0.01929 -0.0017,0.005 -5.64e-4,0.0022 -0.0044,0.01544 -0.0088,0.043 -0.0011,0.01213 -0.0022,0.01323 -0.0017,0.04299 0,0.0088 0,0.0088 5.64e-4,0.01213 5.64e-4,0.01378 0.0011,0.0099 5.65e-4,0.0083 0.0022,0.01764 0.0011,0.0072 5.64e-4,0.0028 0.0022,0.01544 0.0044,0.01654 0.0017,0.0083 0.01213,0.04244 0.0066,0.01598 0,5.65e-4 0.0011,0.0022 0.0083,0.02095 0.358842,0.799263 5.64e-4,5.64e-4 0.0022,0.0061 0.01599,0.02922 0.0011,0.0028 5.65e-4,0.0011 0.0028,0.005 0.437664,0.758472 0.02315,0.03693 5.65e-4,5.65e-4 0.0033,0.0055 0.234267,0.324666 -0.487258,0.390268 -0.218283,-0.298358 -0.450894,-0.749102 -0.37648,-0.775008 -0.311437,-0.819106 -0.235369,-0.83895 -0.159301,-0.8576915 -0.08213,-0.87092 -0.0039,-0.868715 0.07221,-0.854935 0.153789,-0.874227 0.226549,-0.835642 0.301515,-0.818004 0.365456,-0.771701 0.458611,-0.779419 0.01984,-0.03914 0.01709,-0.04024 0.01378,-0.04079 0.0099,-0.04299 0.0061,-0.04299 0.0022,-0.043 -0.0011,-0.0441 -0.0061,-0.04299 -0.0088,-0.043 -0.01323,-0.04189 -0.01599,-0.04024 -0.01984,-0.03858 -0.02315,-0.03693 -0.02591,-0.03528 -0.02922,-0.03197 -0.03197,-0.02976 -0.03473,-0.02701 -0.03583,-0.02425 -0.03914,-0.01984 -0.04024,-0.01709 -0.04079,-0.01378 -0.043,-0.0094 -0.04299,-0.0061 -0.0441,-0.0028 -0.04299,0.0022 -0.0441,0.005 -0.04189,0.0088 -0.04189,0.01323 -0.04024,0.01599 -0.03914,0.01984 -0.03693,0.02315 -0.03473,0.02701 -0.03197,0.02866 -0.03032,0.03197 -0.02701,0.03418 -0.0237,0.03693 -0.464124,0.788789 -0.0011,0.0011 -0.0088,0.01709 -0.01102,0.01984 -0.0044,0.01047 -0.384197,0.810838 -0.0044,0.0077 -0.01709,0.04134 -0.315846,0.858794 -0.0044,0.01433 -0.0099,0.02756 -0.237574,0.884149 0,0.0011 -0.0099,0.04189 0,0.0011 -5.5e-4,0.0028 -0.155443,0.884149 -0.0033,0.01488 -0.0039,0.03307 -0.0011,0.0088 0,0.0022 0,0.0033 -0.07607,0.897929 -0.0017,0.01158 -0.0011,0.04134 0,0.0011 0,5.64e-4 0.0039,0.91612 0,5.65e-4 0,5.64e-4 5.51e-4,0.005 0.0017,0.03693 0.0017,0.01102 0.08489,0.901788 0,0.0011 0.0061,0.04189 0,0.0011 0.168121,0.9001345 0,0.0011 0.0022,0.0088 0.0066,0.03307 0.0039,0.01102 0.244188,0.870921 0,0.0011 0.01433,0.04189 0.324666,0.854934 0,0.0011 0.0077,0.01709 0.0094,0.02205 0.0061,0.01158 0.395221,0.813593 0,5.65e-4 0.02095,0.03803 0.47184,0.784379 0.01268,0.01929 0.01213,0.01874 0.523655,0.7132728 0.0044,0.0077 0.02591,0.03473 0.0094,0.01047 0.005,0.0066 0.0088,0.0094 0.0061,0.0066 0.005,0.005 0.0099,0.0099 0.03307,0.02922 0.01323,0.0099 0.005,0.0039 0.0072,0.005 0.0099,0.0072 0.0072,0.0044 0.01158,0.0077 0.03803,0.02095 0.01157,0.005 0.0077,0.0039 0.01929,0.0077 0.0017,5.64e-4 0.0011,5.65e-4 0.01874,0.0072 0.04189,0.01213 0.0088,0.0017 0.01323,0.0033 0.04299,0.0061 0.0077,5.65e-4 0.01323,0.0017 0.0441,5.64e-4 0.02205,-5.64e-4 0.04299,-0.0044 0.01433,-0.0028 0.0066,-0.0011 0.02205,-0.005 0.0022,-5.65e-4 0.01874,-0.0044 0.02095,-0.0072 0.005,-0.0017 0.01488,-0.0055 0.02095,-0.0088 0.0088,-0.0044 0.01047,-0.0044 0.0061,-0.0033 0.01378,-0.0066 0.01819,-0.01102 0.0077,-0.005 0.01102,-0.0072 0.03528,-0.02591 1.245746,-0.9999038 0.0204,-0.01599 0.0017,-0.0017 0.01213,-0.0094 0.01047,-0.0099 0.0083,-0.0072 0.0066,-0.0066 0.0066,-0.0066 0.0094,-0.01047 0.0077,-0.0083 0.01213,-0.01433 0.0033,-0.0044 0.01268,-0.01544 0.0099,-0.01488 0.0017,-0.0022 0.01213,-0.01874 0.0039,-0.0072 0.0055,-0.0088 0.01984,-0.03914 0.01599,-0.04079 0.0072,-0.02425 5.65e-4,-0.0011 0.0044,-0.01599 0.0033,-0.01543 0.0022,-0.0094 0.0011,-0.0066 0.0022,-0.01158 0.005,-0.043 5.64e-4,-0.01654 5.64e-4,-0.0094 0,-0.0088 0,-0.0094 -0.0011,-0.02481 -5.64e-4,-0.0044 -5.64e-4,-0.01378 -0.0011,-0.0066 -0.0017,-0.01929 -0.0094,-0.04189 -0.005,-0.01819 -5.65e-4,-0.0017 -0.0061,-0.02205 -0.0039,-0.0099 -0.0022,-0.0072 -0.0039,-0.0094 -0.0061,-0.01488 -0.01929,-0.03858 -0.0028,-0.0044 -0.0061,-0.01158 -0.02425,-0.03638 -0.495543,-0.686814 -0.416183,-0.720476 -0.130638,-0.291593 0.536333,-0.20891 0.01709,-0.0077 0.01709,0.03638 0.255764,0.493338 0.05016,0.08599 0.298207,0.469084 0.05678,0.08103 0.3378951,0.440972 0.06394,0.07607 0.37648,0.409553 0.0689,0.06945 0.410104,0.375929 0.07552,0.06394 0.440972,0.3378948 0.08103,0.05678 0.469085,0.298207 0.08599,0.05016 0.493337,0.255764 0.08875,0.04189 0.514284,0.213321 0.0926,0.03362 0.530269,0.167018 0.09481,0.02646 0.542947,0.119614 0.09812,0.01709 0.551215,0.07331 0.09812,0.0077 0.555625,0.02481 0.09812,0 0.556176,-0.02481 0.09757,-0.0077 0.551216,-0.07331 0.09812,-0.01709 0.542947,-0.119614 0.09481,-0.02646 0.530269,-0.167018 0.09315,-0.03362 0.513733,-0.213321 0.08874,-0.04189 0.493338,-0.255764 0.08599,-0.05016 0.469084,-0.298207 0.08103,-0.05678 0.440972,-0.3378948 0.07607,-0.06394 0.409553,-0.375929 0.06945,-0.06945 0.183003,-0.198989 0.01654,0.01433 0.842808,0.67579 0.0033,0.0033 0.01433,0.01102 0.01984,0.01599 0.01378,0.0094 0.0011,5.64e-4 0.0017,0.0011 0.01929,0.01268 0.0094,0.0044 0.0066,0.0044 0.03914,0.01929 0.01709,0.0066 0.0072,0.0033 0.0061,0.0022 0.01047,0.0039 0.01819,0.005 0.0061,0.0022 0.0044,0.0011 0.01378,0.0039 0.01488,0.0028 0.0099,0.0022 0.043,0.0066 0.01544,5.65e-4 0.0028,5.64e-4 0.0248,0.0011 0.0094,0 0.0094,0 0.01213,-5.65e-4 0.01323,-5.64e-4 0.0099,-0.0011 0.0077,-5.64e-4 0.043,-0.0061 0.01654,-0.0044 0.0088,-0.0017 0.01323,-0.0039 0.0044,-0.0011 0.0028,-0.0011 0.0215,-0.0061 0.01709,-0.0072 0.03969,-0.01654 0.02205,-0.01213 0.0055,-0.0033 0.01047,-0.0061 0.01158,-0.0083 0.0094,-0.0055 0.01544,-0.01102 0.0044,-0.0039 0.01544,-0.01102 0.01378,-0.01213 0.0011,-0.0011 0.01819,-0.01599 0.0061,-0.0066 0.0066,-0.0061 0.01709,-0.01929 5.65e-4,-5.64e-4 0.01158,-0.01323 0.0072,-0.01047 0.0077,-0.0094 0.513181,-0.709966 0.0039,-0.0061 0.01929,-0.03032 0.0039,-0.0066 0.437665,-0.758472 0.0033,-0.0061 0.0011,-0.0028 0.01599,-0.02921 0.0028,-0.0066 0,-5.64e-4 0.163711,-0.364353 0.583186,0.225998 -0.147175,0.332934 -0.41727,0.756818 -0.493337,0.730912 -0.552318,0.6768918 -0.601927,0.61681 -0.660355,0.565547 -0.713274,0.508221 -0.754062,0.439869 -0.77997,0.36711 -0.83013,0.303168 -0.835091,0.221589 -0.856038,0.148276 -0.878085,0.07166 -0.888008,-0.0083 -0.04355,0.0011 -0.04299,0.0061 -0.04244,0.0088 -0.04194,0.01327 -0.04079,0.01598 -0.03803,0.01984 -0.03693,0.02315 -0.03528,0.02591 -0.03307,0.02921 -0.02866,0.03197 -0.02701,0.03473 -0.02426,0.03638 -0.02095,0.03858 -0.01709,0.04024 -0.01268,0.04079 -0.0099,0.04299 -0.0061,0.043 -0.0022,0.0441 0.0011,0.043 0.0061,0.04299 0.0088,0.04299 0.01323,0.04189 0.01599,0.04024 0.01984,0.03914 0.02315,0.03693 0.02591,0.03473 0.02922,0.03197 0.03197,0.03032 0.03473,0.02701 0.03583,0.0237 0.03914,0.0204 0.04024,0.01709 0.04079,0.01378 0.04299,0.0088 0.04299,0.0072 0.0441,0.0022 0.915017,0.0077 5.64e-4,0 5.65e-4,0 0.04299,-0.0022 0.0011,0 0.91171,-0.07386 0.04299,-0.0061 0.0022,0 0.901788,-0.154891 0.04189,-0.0088 0.01598,-0.005 0.870369,-0.230959 5.64e-4,0 0.04134,-0.01323 0.01047,-0.0044 0.850526,-0.309783 0.0011,0 0.03969,-0.01653 0.829028,-0.389158 0.01819,-0.0099 0.02095,-0.01102 0.783829,-0.457509 0.0083,-0.0044 0.03473,-0.02315 0.0011,-0.0011 0.731461,-0.520347 0.01544,-0.01047 0.03418,-0.02591 0.0011,-0.0011 5.64e-4,-5.65e-4 0.694531,-0.594761 5.65e-4,-5.64e-4 0.03142,-0.02921 5.65e-4,-0.0011 0.640512,-0.653742 0.02866,-0.03307 0.0011,-0.0011 0.578225,-0.708863 5.64e-4,-0.0011 0.01213,-0.01654 0.01323,-0.01764 0.0011,-0.0011 0.51263,-0.7579208 0.02315,-0.03693 0.0039,-0.0083 0.434357,-0.785482 0.0055,-0.0094 0.0094,-0.01929 0.0099,-0.01929 0.0044,-0.01102 0.365456,-0.827375 0.0083,-0.02095 5.64e-4,-0.0011 0.0072,-0.01874 0.01213,-0.04189 0.0011,-0.0072 0.0039,-0.01378 0.0061,-0.043 0.0017,-0.02205 0,-0.0077 0.0011,-0.01433 0,-0.01047 0,-0.01047 -0.0011,-0.01378 0,-0.0094 -0.0017,-0.02095 -5.65e-4,-0.0044 -0.0017,-0.01764 -0.0028,-0.01433 -0.0011,-0.0066 -0.005,-0.02205 -0.0017,-0.005 -0.0033,-0.01488 -0.0072,-0.02205 -0.0017,-0.0044 -0.0055,-0.01598 -0.01764,-0.03969 -0.005,-0.0094 -0.005,-0.0099 -0.0066,-0.01047 -0.0044,-0.0083 -0.0061,-0.0094 -0.0061,-0.0094 -0.01213,-0.01709 -0.0061,-0.0077 -0.0077,-0.01047 -0.01323,-0.01599 -0.0039,-0.0044 -0.01102,-0.01268 -0.0077,-0.0072 -0.0072,-0.0077 -0.03307,-0.02921 -0.03528,-0.02481 -0.0083,-0.005 -0.01047,-0.0072 -0.01929,-0.01102 -0.0061,-0.0028 -0.01268,-0.0072 -0.04024,-0.01819 -1.489935,-0.578776 -0.0028,-0.0011 -0.01984,-0.0077 -0.01709,-0.0072 -0.04189,-0.01213 -0.01047,-0.0022 -0.01488,-0.0039 -0.01764,-0.0028 -0.01047,-0.0011 -0.01488,-0.0022 -0.0072,-5.64e-4 -0.01047,-0.0011 -0.01488,-5.64e-4 -0.01158,-5.65e-4 -0.0088,0 -0.0088,0 -0.02536,0.0011 -0.0055,5.64e-4 -0.01213,5.65e-4 -0.0088,0.0011 -0.01764,0.0017 -0.01213,0.0028 -0.0055,5.65e-4 -0.01544,0.0039 -0.0088,0.0017 -0.0044,0.0011 -0.01323,0.0033 -0.01598,0.0055 -0.0083,0.0022 -0.0061,0.0022 -0.01102,0.0039 -0.0237,0.0099 -0.0044,0.0022 -0.01158,0.005 -0.01709,0.0088 -0.0061,0.0033 -0.0033,0.0022 -0.01268,0.0066 -0.01488,0.0099 -0.0061,0.0039 -0.0066,0.005 -0.0083,0.0055 -0.01929,0.01433 -0.0017,0.0017 -5.65e-4,5.64e-4 -0.01378,0.01047 -0.0094,0.0094 -0.0088,0.0072 -0.03087,0.03197 -0.02701,0.03418 -0.0094,0.01378 -5.65e-4,0.0011 -0.0017,0.0022 -0.01213,0.01874 -0.005,0.0083 -0.0044,0.0077 -0.0066,0.01323 -0.005,0.0088 -0.0033,0.0072 -0.005,0.0099 -0.343407,0.767291 -0.421128,0.728707 -0.184657,0.256315 -0.449792,-0.361046 -0.01433,-0.01047 0.02315,-0.03252 0.298208,-0.469084 0.05016,-0.08599 0.255764,-0.493338 0.04189,-0.08874 0.21332,-0.513733 0.03362,-0.09315 0.167018,-0.5302695 0.02646,-0.09481 0.119613,-0.542947 0.01709,-0.09812 0.07331,-0.551216 0.0077,-0.09757 0.0248,-0.556176 0,-0.09812 -0.0248,-0.555625 -0.0077,-0.09812 -0.07331,-0.551215 -0.01709,-0.09812 -0.119613,-0.542947 -0.02646,-0.09481 -0.167018,-0.530269 -0.03362,-0.0926 -0.21332,-0.514284 -0.04189,-0.08875 -0.255633,-0.492895 -0.05016,-0.08599 -0.298208,-0.469084 -0.05678,-0.08103 -0.337894,-0.440972 -0.06394,-0.07552 -0.37593,-0.410104 -0.06945,-0.0689 -0.409553,-0.37648 -0.07607,-0.06394 -0.440972,-0.337895 -0.08103,-0.05678 -0.469084,-0.298207 -0.08599,-0.05016 -0.493338,-0.255764 -0.08874,-0.04189 -0.513733,-0.21332 -0.09315,-0.03362 -0.53027,-0.167019 -0.09481,-0.02591 -0.264032,-0.05843 0.0039,-0.02205 0.165365,-1.071562 0,-0.0017 0.0028,-0.01654 0.005,-0.04299 5.65e-4,-0.01709 5.64e-4,-0.0088 -5.64e-4,-0.0061 5.64e-4,-0.01213 -0.0033,-0.04299 -0.0039,-0.02591 -5.65e-4,-0.0044 -0.0022,-0.01268 -0.0022,-0.0083 -0.0028,-0.01654 -0.0028,-0.0088 -0.0022,-0.0094 -0.0083,-0.0237 -5.64e-4,-0.0017 -0.0055,-0.01544 -0.0044,-0.01047 -0.0055,-0.01378 -0.0077,-0.01599 -0.0039,-0.0066 -0.0083,-0.01654 -0.0094,-0.01488 -0.01378,-0.02205 -0.0028,-0.0033 -0.0072,-0.01157 -0.02701,-0.03418 -0.03087,-0.03087 -0.0088,-0.0083 -0.0094,-0.0088 -0.0066,-0.005 -0.0072,-0.0066 -0.02095,-0.01544 -0.0028,-0.0017 -0.01268,-0.0094 -0.02095,-0.01268 -0.0039,-0.0022 -0.01213,-0.0072 -0.02205,-0.01157 -0.005,-0.0022 -0.01213,-0.0061 -0.01378,-0.005 -0.0088,-0.0039 -0.04189,-0.01433 -0.0066,-0.0017 -0.01047,-0.0033 -0.01764,-0.0033 -0.0077,-0.0017 -0.01764,-0.0028 -0.0094,-0.0011 -0.01599,-0.0022 -0.869817,-0.08875 -0.0088,-0.0011 -0.04299,-0.0017 -0.876433,0 -0.0066,0 -0.01047,5.64e-4 -0.02591,0.0011 -0.0083,0.0011 -0.397426,0.04079 -0.09477,-0.618416 0.362148,-0.03969 0.87533,-0.01599 0.867613,0.06174 0.863203,0.139457 0.837296,0.214423 0.831232,0.293246 0.790443,0.362149 0.75296,0.430499 0.709967,0.493889 0.669725,0.561688 0.61681,0.618464 0.555625,0.668624 0.489479,0.706658 0.444831,0.785482 0.02315,0.03693 0.02591,0.03528 0.02977,0.03197 0.03142,0.02977 0.03473,0.02701 0.03638,0.02425 0.03859,0.01984 0.04024,0.01709 0.04189,0.01378 0.04189,0.0099 0.04299,0.0061 0.0441,0.0022 0.043,-0.0022 0.0441,-0.005 0.04189,-0.0088 0.04189,-0.01323 0.04134,-0.01599 0.03803,-0.01984 0.03693,-0.02315 0.03473,-0.02591 0.03307,-0.02977 0.02922,-0.03197 0.02701,-0.03418 0.0237,-0.03583 0.0204,-0.03914 0.01653,-0.04024 0.01433,-0.04189 0.0099,-0.04189 0.0061,-0.04299 0.0017,-0.0441 -5.65e-4,-0.0441 -0.0061,-0.04299 -0.0094,-0.04189 -0.01268,-0.04189 -0.01599,-0.04134 -0.01984,-0.03803 -0.44428,-0.783828 -0.0072,-0.01378 -0.01102,-0.01709 -0.01158,-0.01929 -0.0077,-0.0099 -0.513733,-0.74359 -5.64e-4,-0.0011 -0.02536,-0.03418 -0.0011,-0.0011 -5.65e-4,-5.64e-4 -0.57602,-0.691224 -0.0094,-0.01213 -0.01378,-0.01488 -0.01488,-0.01709 -0.01213,-0.01102 -0.635,-0.637756 -5.64e-4,-5.64e-4 -5.65e-4,-5.65e-4 -0.03087,-0.02811 -0.0011,-0.0011 -0.701146,-0.588147 -5.64e-4,-5.64e-4 -0.0044,-0.0033 -0.02977,-0.02315 -0.0094,-0.0055 -0.742486,-0.51704 -0.0011,-0.0011 -0.03638,-0.02315 -5.65e-4,0 -0.795405,-0.454201 -5.64e-4,-5.51e-4 -0.01268,-0.0061 -0.02535,-0.01323 -0.0083,-0.0033 -0.810838,-0.370968 -0.01488,-0.0077 -0.02701,-0.01047 -0.01323,-0.0055 -0.0011,0 -0.862652,-0.304822 -0.0011,0 -0.04134,-0.01323 -5.65e-4,0 -0.887457,-0.2271 -5.64e-4,0 -0.04134,-0.0088 -0.0011,0 -0.903993,-0.146072 -5.64e-4,0 -0.04244,-0.005 -0.0033,0 -0.892968,-0.06394 -0.01929,-0.0022 -0.04244,-5.51e-4 -5.65e-4,0 z m -0.261276,5.49286 0.463021,0.0204 0.456406,0.06063 0.440421,0.09812 0.433255,0.136701 0.423334,0.175838 0.400733,0.20891 0.385851,0.245291 0.364353,0.28112 0.334588,0.307027 0.300963,0.32687 0.259072,0.336242 -2.480469,1.432057 -0.08434,-0.0915 -0.154341,-0.141662 -0.165915,-0.127331 -0.17694,-0.111897 -0.18576,-0.09701 -0.192925,-0.07993 -0.200091,-0.06284 -0.20395,-0.0463 -0.208359,-0.02701 -0.208911,-0.0088 -0.208911,0.0088 -0.207808,0.02701 -0.204501,0.0463 -0.19954,0.06284 -0.192925,0.07993 -0.186311,0.09701 -0.176936,0.111898 -0.165916,0.127331 -0.15434,0.141662 -0.08434,0.0915 -2.480469,-1.432057 0.256315,-0.332383 0.304271,-0.33128 0.330729,-0.304271 0.367661,-0.283325 0.3853,-0.24529 0.400733,-0.208911 0.42168,-0.174735 0.436011,-0.137804 0.43987,-0.09812 0.456406,-0.06063 0.463021,-0.0204 z m -4.761949,3.063103 2.48102,1.432608 -0.03693,0.11796 -0.0463,0.204501 -0.02701,0.207808 -0.0088,0.208911 0.0088,0.208911 0.02701,0.208359 0.0463,0.20395 0.06284,0.200091 0.07993,0.192925 0.09701,0.18576 0.111897,0.17694 0.12733,0.165915 0.141663,0.154341 0.15434,0.141662 0.165916,0.127331 0.17694,0.1118965 0.186311,0.09701 0.192925,0.07993 0.19954,0.06284 0.121268,0.02756 0,2.864666 -0.418924,-0.05623 -0.446484,-0.09976 -0.424436,-0.133394 -0.426641,-0.177492 -0.405143,-0.211115 -0.380339,-0.243086 -0.37207,-0.286081 -0.326871,-0.300963 -0.307027,-0.334037 -0.281119,-0.364904 -0.245291,-0.3853 -0.20891,-0.400733 -0.175838,-0.4233345 -0.13615,-0.433806 -0.09867,-0.440972 -0.06063,-0.455855 -0.0204,-0.463021 0.0204,-0.463021 0.06063,-0.456406 0.09812,-0.43987 0.137253,-0.43546 0.156545,-0.377031 z m 9.523898,0 0.15875,0.381992 0.133394,0.423885 0.09977,0.446484 0.06063,0.456406 0.0204,0.463021 -0.0204,0.463021 -0.06063,0.456406 -0.09977,0.446484 -0.132843,0.422231 -0.178043,0.4282955 -0.211115,0.405143 -0.243086,0.38089 -0.283876,0.368763 -0.303719,0.330178 -0.330178,0.303719 -0.368763,0.283876 -0.38089,0.243086 -0.405143,0.211115 -0.428295,0.178043 -0.422231,0.132843 -0.446484,0.09977 -0.419475,0.05622 0,-2.864666 0.121268,-0.02756 0.200091,-0.06284 0.192925,-0.07993 0.18576,-0.09701 0.17694,-0.1118965 0.165915,-0.127331 0.154341,-0.141662 0.141662,-0.154341 0.127331,-0.165915 0.111896,-0.176941 0.09701,-0.185759 0.07993,-0.192925 0.06284,-0.200092 0.0463,-0.203949 0.02701,-0.208359 0.0088,-0.208911 -0.0088,-0.208911 -0.02701,-0.207808 -0.0463,-0.204501 -0.03693,-0.11796 2.48102,-1.432608 z"
       id="path5-5" />
    <path
       inkscape:connector-curvature="0"
       style="opacity:1;fill:#000000;fill-opacity:1;stroke:none;stroke-opacity:1"
       d="m 15.991094,-23.282747 -0.972895,0.04244 -0.0039,5.5e-4 -0.963525,0.127331 -0.0033,0 -0.005,0.0011 -0.0044,5.5e-4 -0.0039,0.0011 -0.94368,0.208911 -0.0044,0.0011 -0.005,0.0011 -0.0039,0.0011 -0.0039,0.0011 -0.0039,0.0017 -0.922183,0.289939 -0.0039,0.0011 -0.0044,0.0022 -0.0039,0.0017 -0.89793,0.371519 -0.0039,0.0016 -0.0044,0.0022 -0.0028,0.0016 -0.0039,0.0022 -0.858243,0.445933 -0.0039,0.0022 -0.0039,0.0017 -0.8262711,0.526962 -0.0028,0.0022 -0.0044,0.0033 -5.65e-4,5.51e-4 -0.773355,0.593107 -0.0028,0.0022 -0.723194,0.66201 -0.0028,0.0028 -0.66201,0.723194 -0.0022,0.0028 -0.593107,0.773355 -5.51e-4,5.64e-4 -0.0033,0.0044 -0.0022,0.0028 -0.526961,0.826272 -0.0016,0.0039 -0.0022,0.0039 0,0.0011 -0.445933,0.85714 -0.0022,0.0039 -0.0016,0.0028 -0.0022,0.0044 -0.0016,0.0039 0,5.64e-4 -0.37152,0.897379 -0.0017,0.0039 -0.0022,0.0044 -0.0011,0.0039 -0.291041,0.924939 -5.51e-4,0.0011 -0.0011,0.0039 -0.0011,0.0039 -0.0011,0.005 -0.0011,0.0044 0,5.64e-4 -0.20891,0.94313 -0.0011,0.0039 -5.5e-4,0.0044 -0.0011,0.005 0,0.0039 -0.127331,0.962973 -5.51e-4,0.0039 0,0.0044 -0.04244,0.968485 0,0.0011 0,0.005 0,0.0044 0,0.005 0,0.0011 0.04244,0.969037 0,0.0039 5.51e-4,0.0039 0.127331,0.963524 0,0.0033 0.0011,0.005 5.5e-4,0.0044 0.0011,0.0039 0.20891,0.9431295 0,0.0011 0.0011,0.0039 0.0011,0.005 0.0011,0.0039 0.0011,0.0039 0.0017,0.0044 0.28994,0.921632 0.0011,0.0044 0.0022,0.0039 0.0017,0.0039 0.371519,0.897378 0,5.65e-4 0.0016,0.0039 0.0022,0.0044 0.0016,0.0028 0.0022,0.0039 0.445933,0.85714 0,0.0011 0.0022,0.0039 0.0016,0.0039 0.526962,0.8262715 0.0022,0.0028 0.0033,0.0044 5.5e-4,5.65e-4 0.590352,0.769496 0.0028,0.0039 0.0022,0.0028 0.662009,0.723194 0.0028,0.0028 0.723195,0.66201 0.0028,0.0022 0.772252,0.592557 0.0017,0.0017 0.0044,0.0028 0.0028,0.0022 0.8262721,0.526962 0.0039,0.0017 0.0039,0.0022 0.858243,0.445933 0.0039,0.0022 0.0028,0.0017 0.0044,0.0022 0.0039,0.0022 0.0022,0 0.895724,0.370968 0.0039,0.0017 0.0044,0.0022 0.0039,0.0011 0.0039,0.0011 0.921081,0.28994 0.0011,5.64e-4 0.0039,0.0011 0.0039,0.0011 0.005,0.0011 0.0044,0.0011 5.65e-4,0 0.943129,0.20890996 0.0039,0.0011 0.0044,0.0011 0.005,5.64e-4 0.966831,0.127331 0.0039,0.0011 0.972895,0.04189 0.0011,0 0.005,0 0.0044,0 0.005,0 0.0011,0 0.969036,-0.04189 0.0039,0 0.0039,-0.0011 0.966832,-0.127331 0.005,-5.64e-4 0.0044,-0.0011 0.0039,-0.0011 0.953051,-0.21111496 0.0039,-0.0011 0.0055,-0.0017 0.0028,-0.0011 0.921632,-0.289939 0.0044,-0.0011 0.0039,-0.0022 0.0039,-0.0017 0.895725,-0.370968 0.0022,0 0.0039,-0.0022 0.0044,-0.0022 0.0028,-0.0017 0.0039,-0.0022 0.862101,-0.448138 0.0039,-0.0017 0.826271,-0.526962 0.0028,-0.0022 0.0044,-0.0028 0.0017,-0.0017 0.768395,-0.5898 0.0039,-0.0028 0.0028,-0.0022 0.723195,-0.66201 0.0028,-0.0028 0.66201,-0.723195 0.0022,-0.0028 0.0028,-0.0039 0.589801,-0.768394 0.0017,-0.0017 0.0028,-0.0044 0.0022,-0.0028 0.526962,-0.8262705 0.0017,-0.0039 0.448138,-0.862101 0.0022,-0.0039 0.0017,-0.0028 0.0022,-0.0044 0.0022,-0.0039 0,-0.0022 0.370968,-0.895725 0.0017,-0.0039 0.0022,-0.0039 0.0011,-0.0044 0.28994,-0.921632 0.0011,-0.0028 0.0017,-0.0055 0.0011,-0.0039 0.211116,-0.9530515 0.0011,-0.0039 0.0011,-0.0044 5.64e-4,-0.005 0.127331,-0.966832 0.0011,-0.0039 0,-0.0039 0.04189,-0.969036 0,-0.0061 0,-0.0044 0,-0.0061 -0.04189,-0.968485 0,-0.0044 -0.0011,-0.0039 -0.127331,-0.966831 -5.64e-4,-0.005 -0.0011,-0.0044 -0.0011,-0.0039 -0.208911,-0.943681 -0.0022,-0.0094 -0.0011,-0.0039 -0.0017,-0.005 -0.0011,-0.0028 -0.288837,-0.918325 -0.0011,-0.0039 -0.0011,-0.0039 -0.0022,-0.0044 -0.0017,-0.0039 -0.370969,-0.895724 0,-0.0022 -0.0022,-0.0039 -0.0022,-0.0044 -0.0017,-0.0028 -0.0022,-0.0039 -0.448138,-0.862101 -0.0017,-0.0039 -0.526962,-0.826272 -0.0022,-0.0028 -0.0028,-0.0044 -0.0017,-0.0017 -0.592557,-0.772253 -0.0022,-0.0028 -0.66201,-0.723194 -0.0028,-0.0028 -0.723195,-0.66201 -0.0028,-0.0022 -0.0039,-0.0028 -0.770047,-0.590903 -0.0044,-0.0033 -0.0028,-0.0022 -0.826272,-0.526961 -0.0039,-0.0017 -0.0039,-0.0022 -0.0011,0 -0.85714,-0.445934 -0.0039,-0.0022 -0.0028,-0.0017 -0.0044,-0.0022 -0.0039,-0.0017 -5.64e-4,0 -0.897379,-0.371519 -0.0039,-0.0017 -0.0039,-0.0022 -0.0044,-0.0011 -0.921632,-0.289939 -0.0028,-0.0011 -0.0055,-0.0017 -0.0039,-0.0011 -0.953052,-0.211115 -0.0039,-0.0011 -0.0044,-5.51e-4 -0.005,-0.0011 -0.0033,0 -5.64e-4,0 -0.962973,-0.12733 -0.0039,-5.51e-4 -0.973042,-0.04245 -0.0011,0 -0.005,0 -0.0044,0 -0.005,0 -0.0011,0 z m 0.0061,0.100322 0.972895,0.04134 0.0011,5.5e-4 0.972344,0.127882 0.951949,0.211115 0.9299,0.293798 5.64e-4,0 0.899584,0.372622 0.860998,0.448138 0.0017,0.0017 0.826272,0.525859 5.64e-4,0 0.773355,0.593659 0.0011,5.65e-4 0.713824,0.654843 0.0011,0.0011 0.6576,0.71658 0.0017,0.0022 0.595313,0.776663 5.64e-4,5.64e-4 0.524206,0.822964 5.64e-4,5.65e-4 0.448689,0.862101 0.372622,0.899583 0,5.65e-4 0.293798,0.931002 0.211115,0.950846 0.127882,0.972345 0,0.0011 0.04189,0.968486 0,0.0022 0,0.0022 -0.04134,0.968485 -5.64e-4,0.0011 -0.127882,0.972344 -0.211116,0.9519485 -0.0011,0.0039 -0.292695,0.926042 0,5.65e-4 -0.373173,0.900685 -0.448138,0.860998 -5.65e-4,5.65e-4 -0.521449,0.8191051 -0.0028,0.0044 -0.0022,0.0028 -0.593659,0.773907 -5.65e-4,0.0011 -0.652639,0.71217 -0.0028,0.0028 -0.0033,0.0033 -0.0028,0.0028 -0.71217,0.652639 -0.0011,5.64e-4 -0.776663,0.595864 -0.0044,0.0028 -0.819106,0.521449 -5.64e-4,5.65e-4 -0.865408,0.450342 -0.896827,0.370968 -0.926042,0.292695 -0.0039,0.0011 -0.0039,0.0011 -0.94809,0.21001296 -0.972344,0.127882 -0.0011,5.64e-4 -0.968485,0.04134 -0.973997,-0.04189 -0.972344,-0.127882 -0.94809,-0.21001296 -0.0039,-0.0011 -0.0039,-0.0011 -0.926042,-0.292695 -5.64e-4,0 -0.896277,-0.370968 -0.0033,-0.0017 -0.0011,-5.65e-4 -0.861549,-0.448689 -0.8191061,-0.52145 -0.0039,-0.0028 -5.65e-4,-5.64e-4 -0.0028,-0.0017 -0.773906,-0.593659 -0.0022,-0.0017 -5.64e-4,-5.65e-4 -0.715981,-0.657105 -0.0011,-0.0011 -0.0022,-0.0017 -0.65319,-0.713273 -0.593659,-0.773906 -0.0022,-0.0028 -0.0028,-0.0044 -0.520899,-0.8191051 -0.0016,-0.0017 -0.447587,-0.859896 -0.373172,-0.901237 -0.292696,-0.926041 -0.0011,-0.0039 0,-0.0011 -0.0011,-0.0028 -0.210013,-0.9480905 -0.127882,-0.972344 -0.04189,-0.969587 0,-0.0022 0,-0.0022 0.04189,-0.969588 0.127882,-0.972344 0.210013,-0.94809 0.0011,-0.0028 0,-0.0011 0.0011,-0.0039 0.292696,-0.926042 0,-5.64e-4 0.370968,-0.896277 0.0016,-0.0033 5.5e-4,-0.0011 0.447587,-0.859896 0.0016,-0.0017 0.520898,-0.819106 0.0028,-0.0039 5.65e-4,-5.64e-4 0.0017,-0.0028 0.593659,-0.773906 0.0017,-0.0022 5.64e-4,-5.65e-4 0.654292,-0.713272 0.0017,-0.0011 0.0011,-0.0017 0.713273,-0.654292 5.64e-4,-5.65e-4 0.0022,-0.0017 0.773907,-0.593659 0.0028,-0.0017 5.64e-4,-5.64e-4 0.0039,-0.0028 0.8191061,-0.520899 0.0017,-0.0017 0.859896,-0.447586 0.0011,-5.51e-4 0.0033,-0.0017 0.896827,-0.370968 0.926042,-0.292695 0.0039,-0.0011 0.0039,-0.0011 0.94809,-0.210013 0.972344,-0.127882 0.0011,0 0.968485,-0.04189 z"
       id="path393-6" />
    <path
       inkscape:connector-curvature="0"
       d="m 49.645981,11.999799 -0.022,-0.492 -0.064,-0.488001 -0.106,-0.480999 -0.149001,-0.470001 -0.188,-0.4549986 -0.228,-0.437001 -0.264,-0.414999 -0.3,-0.391 -0.333,-0.363 -0.363,-0.333 -0.391,-0.3 -0.415,-0.264 -0.437,-0.228 -0.454999,-0.188 -0.47,-0.149 -0.481,-0.106 -0.488,-0.064 -0.492,-0.022 -0.492,0.022 -0.488,0.064 -0.481,0.106 -0.47,0.149 -0.454999,0.188 -0.437,0.228 -0.415,0.264 -0.391,0.3 -0.363,0.333 -0.333,0.363 -0.3,0.391 -0.264,0.414999 -0.228,0.437001 -0.188,0.4549986 -0.149,0.470001 -0.106,0.480999 -0.064,0.488001 -0.022,0.492 0.022,0.491999 0.064,0.488001 0.106,0.481 0.149,0.47 0.188,0.455 0.228,0.437 0.264,0.415 0.3,0.391 0.333,0.363 0.363,0.333 0.391,0.3 0.415,0.264 0.437,0.228 0.454999,0.188 0.47,0.149 0.481,0.106 0.488,0.064 0.492,0.022 0.492,-0.022 0.488,-0.064 0.481,-0.106 0.47,-0.149 0.455,-0.188 0.437,-0.228 0.415,-0.264 0.391,-0.3 0.363,-0.333 0.333,-0.363 0.3,-0.391 0.264,-0.415 0.228,-0.437 0.188,-0.455 0.149,-0.47 0.106,-0.481 0.064,-0.488001 z"
       id="path10"
       style="opacity:1;fill:#000000;fill-opacity:1;stroke:none;stroke-opacity:1" />
    <path
       style="display:inline;opacity:1;fill:#000000;fill-opacity:1;stroke:none;stroke-opacity:1"
       d="m 43.99821,5.8040224 -0.536333,0.0237 -0.0039,0 -0.531922,0.07 -0.0039,0.0011 -0.0044,0.0011 -0.514835,0.114102 -0.0039,5.5e-4 -0.005,0.0011 -0.0044,0.0011 -0.0011,5.5e-4 -0.501606,0.158199 -0.0039,0.0011 -0.0044,0.0022 -0.0039,0.0011 -0.0017,0.0011 -0.483967,0.200091 -0.0011,5.51e-4 -0.005,0.0022 -0.0033,0.0017 -0.0039,0.0022 -0.0039,0.0022 -0.464123,0.240881 -0.0039,0.0022 -0.0044,0.0017 -0.451997,0.288285 -0.0039,0.0028 -0.424986,0.32632 -0.0028,0.0028 -0.0033,0.0027 -5.65e-4,5.5e-4 -0.392465,0.358841 -0.0028,0.0028 -0.358841,0.392465 -5.51e-4,5.65e-4 -0.0028,0.0033 -0.0028,0.0028 -0.326319,0.424987 -0.0028,0.0039 -0.288286,0.451996 -0.0017,0.0044 -0.0022,0.0039 0,0.0011 -0.240881,0.463021 -0.0022,0.0039 -0.0022,0.0039 -0.0016,0.0033 -0.0022,0.005 -0.0011,0.0039 -0.19954,0.481211 -0.0011,0.0017 -0.0011,0.0039 -0.0022,0.0044 -0.0011,0.0039 -0.158198,0.5016056 -5.51e-4,0.0011 -0.0011,0.0044 -0.0011,0.005 -5.5e-4,0.0039 -0.114102,0.514835 -0.0011,0.0044 -0.0011,0.0039 -0.07,0.531923 0,0.0039 0,0.005 -0.0237,0.531372 0,0.0039 0.0237,0.53082 0,0.005 0,0.0039 0.07,0.532474 0.0011,0.0039 0.0011,0.0039 0.114653,0.519244 0.0011,0.005 0.0011,0.0039 0,5.65e-4 0.15875,0.502708 0.0011,0.0039 0.0022,0.0039 0.0011,0.0039 0.0016,0.0022 0.19954,0.483967 5.5e-4,0.0011 0.0022,0.005 0.0016,0.0028 0.0022,0.0044 0.0022,0.0039 0.240882,0.463572 0,5.65e-4 0.0022,0.0039 0.0017,0.0039 0.28608,0.448138 0.0022,0.0039 0.0028,0.0039 0.32632,0.424987 0.0028,0.0033 0.0028,0.0028 0.359392,0.393017 0.0028,0.0033 0.392465,0.35829 5.65e-4,5.65e-4 0.0033,0.0028 0.0028,0.0033 0.424987,0.325769 0.0039,0.0033 0.451996,0.287735 0.0044,0.0022 0.0039,0.0022 5.64e-4,0 0.463021,0.24033 5.65e-4,5.65e-4 0.0039,0.0017 0.0039,0.0022 0.0033,0.0022 0.490581,0.202848 0.0011,0.0011 0.0039,0.0011 0.0044,0.0017 0.0039,0.0011 0.0039,0.0011 0.496093,0.156546 0.0028,0.0011 0.0044,0.0011 0.005,0.0011 0.0039,0.0011 0.510426,0.112448 5.64e-4,5.65e-4 0.0039,0.0011 0.0044,5.65e-4 0.0039,0.0011 0.531923,0.07001 0.0039,0 0.536333,0.02425 0.0039,0 0.53082,-0.02425 0.005,0 0.0039,0 0.532474,-0.07001 0.0039,-0.0011 0.518693,-0.114653 0.0044,-0.0011 0.005,-0.0011 0.005,-0.0017 0.0028,-0.0011 0.499402,-0.157097 0.0039,-0.0011 0.0039,-0.0017 0.0039,-0.0011 0.0017,-0.0011 0.490581,-0.202847 0.0028,-0.0022 0.0044,-0.0022 0.0039,-0.0017 5.65e-4,-5.64e-4 0.463572,-0.24033 0.0039,-0.0022 0.0039,-0.0022 0.451996,-0.287734 0.0039,-0.0033 0.0033,-0.0028 0.42168,-0.323012 0.0033,-0.0033 0.0028,-0.0028 0.393017,-0.358841 0.0033,-0.0033 0.358842,-0.393016 0.0028,-0.0028 0.0033,-0.0033 0.323012,-0.42168 0.0028,-0.0033 0.0033,-0.0039 0.287734,-0.451996 0.0022,-0.0039 0.0022,-0.0044 0.24033,-0.463021 5.64e-4,-5.64e-4 0.0017,-0.0039 0.0022,-0.0044 0.0022,-0.0028 0.202847,-0.490582 0.0011,-0.0017 0.0011,-0.0039 0.0017,-0.0039 0.0011,-0.0039 0.157097,-0.499401 0.0011,-0.0028 0.0017,-0.005 0.0011,-0.005 0.0011,-0.005 0.114653,-0.518142 0.0011,-0.0039 0.07001,-0.532474 0,-0.0039 0,-0.005 0.02425,-0.530821 0,-0.0039 -0.02425,-0.531371 0,-0.005 0,-0.0039 -0.07001,-0.531923 -0.0011,-0.0039 -5.65e-4,-0.0044 -0.0011,-0.0039 -5.64e-4,-5.64e-4 -0.11355,-0.514284 -0.0011,-0.005 -0.0022,-0.0072 -5.65e-4,-0.0011 -0.155994,-0.4949906 -0.0011,-0.0039 -0.0011,-0.0039 -0.0017,-0.0044 -0.0011,-0.0039 -0.0011,-0.0011 -0.202848,-0.490582 -0.0022,-0.0033 -0.0022,-0.0039 -0.0011,-0.0022 -0.0011,-0.0022 -0.24033,-0.463572 -0.0022,-0.0039 -0.0022,-0.0044 -0.287735,-0.451996 -0.0033,-0.0039 -0.325769,-0.424987 -0.0033,-0.0028 -0.0033,-0.0039 -0.35829,-0.392465 -0.0033,-0.0028 -0.393144,-0.359409 -0.0028,-0.0028 -0.0033,-0.0028 -0.424987,-0.326319 -0.0039,-0.0028 -0.0039,-0.0022 -0.448138,-0.286081 -0.0039,-0.0017 -0.0039,-0.0022 -5.64e-4,0 -0.463572,-0.240881 -0.0022,-0.0011 -0.0061,-0.0033 -0.0028,-0.0017 -0.0061,-0.0028 -0.0028,-5.5e-4 -0.481211,-0.198989 -0.0022,-0.0017 -0.0039,-0.0011 -0.0039,-0.0022 -0.0039,-0.0011 -0.50326,-0.15875 -0.0039,-0.0011 -0.005,-0.0011 -0.519244,-0.114653 -0.0039,-0.0011 -0.0039,-0.0011 -0.532474,-0.07 -0.0039,0 -0.535782,-0.0237 -0.0039,0 z m 0,0.09977 0.53082,0.02315 0.531923,0.07 0.510426,0.112448 5.64e-4,5.5e-4 0.0039,0.0011 0.507118,0.159853 0.494991,0.205052 0.0039,0.0017 0.465777,0.243086 0.450343,0.287183 0.0039,0.0017 0.418372,0.322461 5.64e-4,0 0.38971,0.357187 0.357187,0.390261 5.65e-4,5.64e-4 0.323563,0.420578 5.64e-4,0.0011 0.286632,0.450343 0.246945,0.474045 5.64e-4,5.64e-4 0.19954,0.482314 5.64e-4,5.64e-4 0.0028,0.0072 0.0017,0.0044 0.155994,0.4949906 0.0011,0.0039 0,0.0011 0.115204,0.517592 0.07,0.532474 0,5.64e-4 0.0226,0.526411 0,0.0022 0,0.0017 -0.0226,0.52641 0,5.65e-4 -0.07,0.531922 -0.115204,0.519245 -0.158199,0.501606 -5.65e-4,0.0011 -0.203398,0.491684 -0.0017,0.0033 -0.0022,0.0039 -0.244188,0.467982 -0.28553,0.448138 -0.0022,0.0039 -0.32191,0.418372 -0.353329,0.385851 -0.0028,0.0028 -0.0033,0.0033 -0.0028,0.0028 -0.389158,0.356085 -0.415616,0.319705 -0.0033,0.0017 -0.451997,0.287734 -0.464123,0.241984 -0.0039,0.0022 -0.0039,0.0017 -0.491133,0.203399 -0.0039,0.0017 -0.503259,0.158199 -0.514835,0.114102 -0.531923,0.07 -5.65e-4,0 -0.52641,0.0226 -0.53082,-0.0226 -0.532474,-0.07 -0.514835,-0.114102 -0.0039,-0.0011 -0.0039,-0.0011 -0.494991,-0.155994 -0.0044,-0.0017 -0.0077,-0.0033 -0.48283,-0.200239 -0.472391,-0.245842 -0.451997,-0.287734 -0.42168,-0.324115 -5.64e-4,-5.64e-4 -0.385851,-0.352778 -0.0028,-0.0028 -0.0017,-0.0017 -0.0016,-0.0017 -0.0028,-0.0028 -0.352778,-0.385851 -0.322461,-0.418372 0,-5.65e-4 -0.0016,-0.0033 -0.28608,-0.448138 -0.244189,-0.467981 -5.5e-4,-0.0017 -0.0011,-0.0022 -0.205052,-0.494992 0,-5.64e-4 -0.159859,-0.506423 -0.0011,-0.0039 -5.5e-4,-5.65e-4 -0.112448,-0.510425 -0.07,-0.531923 0,-5.64e-4 -0.02315,-0.526411 0,-0.0022 0,-0.0017 0.02315,-0.526962 0.07,-0.532474 0.114101,-0.514835 0.159853,-0.5071176 0.202847,-0.490581 0.0016,-0.0033 5.5e-4,-0.0011 0.243637,-0.467982 0.0011,-0.0017 0.0011,-0.0022 0.286081,-0.448138 0.0011,-0.0022 0.323012,-0.419475 5.51e-4,-0.0017 0.352226,-0.384749 0.0028,-0.0028 0.0016,-0.0016 0.0017,-0.0016 0.0028,-0.0028 0.384748,-0.352226 0.0017,-5.51e-4 0.419476,-0.323012 0.0022,-0.0011 0.448138,-0.28608 0.0022,-0.0011 0.0017,-0.0011 0.467981,-0.243638 0.0011,-5.5e-4 0.0033,-0.0017 0.490582,-0.202847 5.64e-4,-5.5e-4 0.506566,-0.159302 0.514835,-0.114101 0.532474,-0.07 5.65e-4,0 0.52641,-0.02315 z"
       id="path89"
       inkscape:connector-curvature="0" />
    <path
       style="display:inline;opacity:1;fill:#000000;fill-opacity:1;stroke:none;stroke-opacity:1"
       d="m 18.399693,11.999134 -0.009,-0.209 -0.027,-0.208 -0.046,-0.204 -0.063,-0.2 -0.08,-0.193 -0.097,-0.186 -0.112,-0.177001 -0.127,-0.166 -0.142,-0.153999 -0.154,-0.142 -0.166,-0.127 -0.177,-0.1119996 -0.186,-0.097 -0.193,-0.08 -0.2,-0.063 -0.204,-0.046 -0.208,-0.027 -0.209,-0.009 -0.209,0.009 -0.208,0.027 -0.204,0.046 -0.2,0.063 -0.193,0.08 -0.186,0.097 -0.177,0.1119996 -0.166,0.127 -0.154,0.142 -0.142,0.153999 -0.127,0.166 -0.112,0.177001 -0.097,0.186 -0.08,0.193 -0.063,0.2 -0.046,0.204 -0.027,0.208 -0.009,0.209 0.009,0.209 0.027,0.207999 0.046,0.204001 0.063,0.199999 0.08,0.193001 0.097,0.186 0.112,0.177 0.127,0.166 0.142,0.153999 0.154,0.142001 0.166,0.127 0.177,0.111999 0.186,0.097 0.193,0.08 0.2,0.063 0.204,0.046 0.208,0.027 0.209,0.009 0.209,-0.009 0.208,-0.027 0.204,-0.046 0.2,-0.063 0.193,-0.08 0.186,-0.097 0.177,-0.111999 0.166,-0.127 0.154,-0.142001 0.142,-0.153999 0.127,-0.166 0.112,-0.177 0.097,-0.186 0.08,-0.193001 0.063,-0.199999 0.046,-0.204001 0.027,-0.207999 z"
       id="path5-9"
       inkscape:connector-curvature="0" />
    <path
       style="display:inline;opacity:1;fill:#000000;fill-opacity:1;stroke:none;stroke-opacity:1"
       d="m 15.997922,5.8033574 -0.536332,0.0237 -0.0039,0 -0.531923,0.07 -0.0039,0.0011 -0.0044,0.0011 -0.514835,0.114102 -0.0039,5.5e-4 -0.005,0.0011 -0.0044,0.0011 -0.0011,5.5e-4 -0.501606,0.158199 -0.0039,0.0011 -0.0044,0.0022 -0.0039,0.0011 -0.0017,0.0011 -0.483967,0.200091 -0.0011,5.51e-4 -0.005,0.0022 -0.0033,0.0017 -0.0039,0.0022 -0.0039,0.0022 -0.464124,0.240881 -0.0039,0.0022 -0.0044,0.0017 -0.451996,0.288285 -0.0039,0.0028 -0.424987,0.32632 -0.0028,0.0028 -0.0033,0.0027 -5.64e-4,5.5e-4 -0.392466,0.358841 -0.0028,0.0028 -0.358841,0.392465 -5.5e-4,5.65e-4 -0.0028,0.0033 -0.0028,0.0028 -0.326319,0.424987 -0.0028,0.0039 -0.288286,0.451996 -0.0017,0.0044 -0.0022,0.0039 0,0.0011 -0.240881,0.463021 -0.0022,0.0039 -0.0022,0.0039 -0.0017,0.0033 -0.0022,0.005 -0.0011,0.0039 -0.19954,0.481211 -0.0011,0.0017 -0.0011,0.0039 -0.0022,0.0044 -0.0011,0.0039 -0.158199,0.5016056 -5.5e-4,0.0011 -0.0011,0.0044 -0.0011,0.005 -5.5e-4,0.0039 -0.1141021,0.514835 -0.0011,0.0044 -0.0011,0.0039 -0.07,0.531923 0,0.0039 0,0.005 -0.0237,0.531372 0,0.0039 0.0237,0.53082 0,0.005 0,0.0039 0.07,0.532474 0.0011,0.0039 0.0011,0.0039 0.1146531,0.519244 0.0011,0.005 0.0011,0.0039 0,5.65e-4 0.15875,0.502708 0.0011,0.0039 0.0022,0.0039 0.0011,0.0039 0.0017,0.0022 0.19954,0.483967 5.5e-4,0.0011 0.0022,0.005 0.0017,0.0028 0.0022,0.0044 0.0022,0.0039 0.240881,0.463572 0,5.65e-4 0.0022,0.0039 0.0017,0.0039 0.286081,0.448138 0.0022,0.0039 0.0028,0.0039 0.326319,0.424987 0.0028,0.0033 0.0028,0.0028 0.359393,0.393017 0.0028,0.0033 0.392465,0.35829 5.64e-4,5.65e-4 0.0033,0.0028 0.0028,0.0033 0.424987,0.325769 0.0039,0.0033 0.451997,0.287735 0.0044,0.0022 0.0039,0.0022 5.64e-4,0 0.463021,0.24033 5.64e-4,5.65e-4 0.0039,0.0017 0.0039,0.0022 0.0033,0.0022 0.490582,0.202848 0.0011,0.0011 0.0039,0.0011 0.0044,0.0017 0.0039,0.0011 0.0039,0.0011 0.496094,0.156546 0.0028,0.0011 0.0044,0.0011 0.005,0.0011 0.0039,0.0011 0.510425,0.112448 5.65e-4,5.65e-4 0.0039,0.0011 0.0044,5.65e-4 0.0039,0.0011 0.531922,0.07001 0.0039,0 0.536333,0.02425 0.0039,0 0.53082,-0.02425 0.005,0 0.0039,0 0.532474,-0.07001 0.0039,-0.0011 0.518694,-0.114653 0.0044,-0.0011 0.005,-0.0011 0.005,-0.0017 0.0028,-0.0011 0.499401,-0.157097 0.0039,-0.0011 0.0039,-0.0017 0.0039,-0.0011 0.0017,-0.0011 0.490581,-0.202847 0.0028,-0.0022 0.0044,-0.0022 0.0039,-0.0017 5.65e-4,-5.64e-4 0.463572,-0.24033 0.0039,-0.0022 0.0039,-0.0022 0.451996,-0.287734 0.0039,-0.0033 0.0033,-0.0028 0.421681,-0.323012 0.0033,-0.0033 0.0028,-0.0028 0.393017,-0.358841 0.0033,-0.0033 0.358842,-0.393016 0.0028,-0.0028 0.0033,-0.0033 0.323012,-0.42168 0.0028,-0.0033 0.0033,-0.0039 0.287734,-0.451996 0.0022,-0.0039 0.0022,-0.0044 0.24033,-0.463021 5.64e-4,-5.64e-4 0.0017,-0.0039 0.0022,-0.0044 0.0022,-0.0028 0.202848,-0.490582 0.0011,-0.0017 0.0011,-0.0039 0.0017,-0.0039 0.0011,-0.0039 0.157097,-0.499401 0.0011,-0.0028 0.0017,-0.005 0.0011,-0.005 0.0011,-0.005 0.114653,-0.518142 0.0011,-0.0039 0.07001,-0.532474 0,-0.0039 0,-0.005 0.02425,-0.530821 0,-0.0039 -0.02425,-0.531371 0,-0.005 0,-0.0039 -0.07001,-0.531923 -0.0011,-0.0039 -5.65e-4,-0.0044 -0.0011,-0.0039 -5.64e-4,-5.64e-4 -0.11355,-0.514284 -0.0011,-0.005 -0.0022,-0.0072 -5.65e-4,-0.0011 -0.155994,-0.4949906 -0.0011,-0.0039 -0.0011,-0.0039 -0.0017,-0.0044 -0.0011,-0.0039 -0.0011,-0.0011 -0.202849,-0.490582 -0.0022,-0.0033 -0.0022,-0.0039 -0.0011,-0.0022 -0.0011,-0.0022 -0.24033,-0.463572 -0.0022,-0.0039 -0.0022,-0.0044 -0.287735,-0.451996 -0.0033,-0.0039 -0.325769,-0.424987 -0.0033,-0.0028 -0.0033,-0.0039 -0.35829,-0.392465 -0.0033,-0.0028 -0.393144,-0.359409 -0.0028,-0.0028 -0.0033,-0.0028 -0.424987,-0.326319 -0.0039,-0.0028 -0.0039,-0.0022 -0.448138,-0.286081 -0.0039,-0.0017 -0.0039,-0.0022 -5.65e-4,0 -0.463572,-0.240881 -0.0022,-0.0011 -0.0061,-0.0033 -0.0028,-0.0017 -0.0061,-0.0028 -0.0028,-5.5e-4 -0.481211,-0.198989 -0.0022,-0.0017 -0.0039,-0.0011 -0.0039,-0.0022 -0.0039,-0.0011 -0.50326,-0.15875 -0.0039,-0.0011 -0.005,-0.0011 -0.519244,-0.114653 -0.0039,-0.0011 -0.0039,-0.0011 -0.532474,-0.07 -0.0039,0 -0.535781,-0.0237 -0.0039,0 z m 0,0.09977 0.530821,0.02315 0.531922,0.07 0.510426,0.112448 5.64e-4,5.5e-4 0.0039,0.0011 0.507118,0.159853 0.494992,0.205052 0.0039,0.0017 0.465776,0.243086 0.450343,0.287183 0.0039,0.0017 0.418373,0.322461 5.64e-4,0 0.38971,0.357187 0.357187,0.390261 5.65e-4,5.64e-4 0.323563,0.420578 5.64e-4,0.0011 0.286632,0.450343 0.246945,0.474045 5.64e-4,5.64e-4 0.199541,0.482314 5.64e-4,5.64e-4 0.0028,0.0072 0.0017,0.0044 0.155994,0.4949906 0.0011,0.0039 0,0.0011 0.115204,0.517592 0.07,0.532474 0,5.64e-4 0.0226,0.526411 0,0.0022 0,0.0017 -0.0226,0.52641 0,5.65e-4 -0.07,0.531922 -0.115204,0.519245 -0.158199,0.501606 -5.65e-4,0.0011 -0.203399,0.491684 -0.0017,0.0033 -0.0022,0.0039 -0.244188,0.467982 -0.28553,0.448138 -0.0022,0.0039 -0.32191,0.418372 -0.353329,0.385851 -0.0028,0.0028 -0.0033,0.0033 -0.0028,0.0028 -0.389158,0.356085 -0.415617,0.319705 -0.0033,0.0017 -0.451996,0.287734 -0.464124,0.241984 -0.0039,0.0022 -0.0039,0.0017 -0.491132,0.203399 -0.0039,0.0017 -0.50326,0.158199 -0.514835,0.114102 -0.531923,0.07 -5.64e-4,0 -0.526411,0.0226 -0.53082,-0.0226 -0.532474,-0.07 -0.514835,-0.114102 -0.0039,-0.0011 -0.0039,-0.0011 -0.494991,-0.155994 -0.0044,-0.0017 -0.0077,-0.0033 -0.48283,-0.200239 -0.472392,-0.245842 -0.451996,-0.287734 -0.42168,-0.324115 -5.65e-4,-5.64e-4 -0.38585,-0.352778 -0.0028,-0.0028 -0.0017,-0.0017 -0.0016,-0.0017 -0.0028,-0.0028 -0.352778,-0.385851 -0.322461,-0.418372 0,-5.65e-4 -0.0016,-0.0033 -0.286081,-0.448138 -0.244188,-0.467981 -5.5e-4,-0.0017 -0.0011,-0.0022 -0.205053,-0.494992 0,-5.64e-4 -0.159859,-0.506423 -0.0011,-0.0039 -5.5e-4,-5.65e-4 -0.1124481,-0.510425 -0.07,-0.531923 0,-5.64e-4 -0.02315,-0.526411 0,-0.0022 0,-0.0017 0.02315,-0.526962 0.07,-0.532474 0.1141011,-0.514835 0.159853,-0.5071176 0.202847,-0.490581 0.0017,-0.0033 5.5e-4,-0.0011 0.243637,-0.467982 0.0011,-0.0017 0.0011,-0.0022 0.286081,-0.448138 0.0011,-0.0022 0.323012,-0.419475 5.51e-4,-0.0017 0.352226,-0.384749 0.0028,-0.0028 0.0016,-0.0016 0.0017,-0.0016 0.0028,-0.0028 0.384749,-0.352226 0.0017,-5.51e-4 0.419475,-0.323012 0.0022,-0.0011 0.448138,-0.28608 0.0022,-0.0011 0.0017,-0.0011 0.467981,-0.243638 0.0011,-5.5e-4 0.0033,-0.0017 0.490582,-0.202847 5.64e-4,-5.5e-4 0.506567,-0.159302 0.514835,-0.114101 0.532475,-0.07 5.64e-4,0 0.52641,-0.02315 z"
       id="path89-1"
       inkscape:connector-curvature="0" />
    <path
       inkscape:connector-curvature="0"
       style="opacity:1;fill:#000000;fill-opacity:1;stroke:none;stroke-opacity:1"
       d="m 43.99965,-42.400794 -0.208911,0.0088 -0.207808,0.02701 -0.204501,0.0463 -0.19954,0.06284 -0.192925,0.07993 -0.186311,0.09701 -0.17694,0.111896 -0.165916,0.127331 -0.15434,0.141662 -0.141663,0.15434 -0.127331,0.165916 -0.111896,0.17694 -0.09701,0.186311 -0.07993,0.192926 -0.06284,0.199539 -0.0463,0.204501 -0.02701,0.207809 -0.0088,0.20891 0.0088,0.208911 0.02701,0.208359 0.0463,0.20395 0.06284,0.200091 0.07993,0.192925 0.09701,0.18576 0.111896,0.17694 0.127331,0.165916 0.141663,0.15434 0.15434,0.141662 0.165916,0.127331 0.17694,0.111897 0.186311,0.09701 0.192925,0.07993 0.19954,0.06284 0.204501,0.0463 0.207808,0.02701 0.208911,0.0088 0.208911,-0.0088 0.208359,-0.02701 0.20395,-0.0463 0.200091,-0.06284 0.192925,-0.07993 0.18576,-0.09701 0.17694,-0.111897 0.165915,-0.127331 0.154341,-0.141662 0.141662,-0.15434 0.127331,-0.165916 0.111896,-0.17694 0.09701,-0.18576 0.07993,-0.192925 0.06284,-0.200091 0.0463,-0.20395 0.02701,-0.208359 0.0088,-0.208911 -0.0088,-0.20891 -0.02701,-0.207809 -0.0463,-0.204501 -0.06284,-0.199539 -0.07993,-0.192926 -0.09701,-0.186311 -0.111896,-0.17694 -0.127331,-0.165916 -0.141662,-0.15434 -0.154341,-0.141662 -0.165915,-0.127331 -0.17694,-0.111896 -0.18576,-0.09701 -0.192925,-0.07993 -0.200091,-0.06284 -0.20395,-0.0463 -0.208359,-0.02701 -0.208911,-0.0088 z m 0,0.900134 0.131189,0.0061 0.128984,0.01709 0.127882,0.02756 0.125126,0.03914 0.120717,0.05126 0.116306,0.05953 0.109692,0.07 0.10418,0.08048 0.09701,0.08764 0.08819,0.09701 0.07993,0.10418 0.07,0.109691 0.06008,0.116307 0.05071,0.120716 0.03914,0.125126 0.02811,0.127882 0.01654,0.128984 0.0061,0.131189 -0.0061,0.13119 -0.01654,0.128984 -0.02811,0.127882 -0.03914,0.125126 -0.05071,0.120716 -0.06008,0.116306 -0.07,0.109692 -0.07993,0.10418 -0.08819,0.09701 -0.09701,0.08819 -0.10418,0.07993 -0.109692,0.07 -0.116306,0.06008 -0.120717,0.05071 -0.125126,0.03914 -0.127882,0.02811 -0.128984,0.01653 -0.131189,0.0061 -0.131189,-0.0061 -0.128985,-0.01653 -0.127882,-0.02811 -0.125125,-0.03914 -0.120716,-0.05071 -0.116307,-0.06008 -0.109692,-0.07 -0.104179,-0.07993 -0.09701,-0.08819 -0.08764,-0.09701 -0.08048,-0.10418 -0.07,-0.109692 -0.05953,-0.116306 -0.05126,-0.120716 -0.03914,-0.125126 -0.02756,-0.127882 -0.01709,-0.128984 -0.0061,-0.13119 0.0061,-0.131189 0.01709,-0.128984 0.02756,-0.127882 0.03914,-0.125126 0.05126,-0.120716 0.05953,-0.116307 0.07,-0.109691 0.08048,-0.10418 0.08764,-0.09701 0.09701,-0.08764 0.104179,-0.08048 0.109692,-0.07 0.116307,-0.05953 0.120716,-0.05126 0.125125,-0.03914 0.127882,-0.02756 0.128985,-0.01709 0.131189,-0.0061 z"
       id="path286" />
    <path
       inkscape:connector-curvature="0"
       style="opacity:1;fill:#000000;fill-opacity:1;stroke:none;stroke-opacity:1"
       d="m 43.991382,-51.281975 -0.972895,0.04244 -0.0039,5.5e-4 -0.963525,0.127331 -0.0033,0 -0.005,0.0011 -0.0044,5.5e-4 -0.0039,0.0011 -0.943681,0.208911 -0.0044,0.0011 -0.005,0.0011 -0.0039,0.0011 -0.0039,0.0011 -0.0039,0.0016 -0.922183,0.289939 -0.0039,0.0011 -0.0044,0.0022 -0.0039,0.0016 -0.89793,0.371519 -0.0039,0.0017 -0.0044,0.0022 -0.0028,0.0017 -0.0039,0.0022 -0.858242,0.445933 -0.0039,0.0022 -0.0039,0.0016 -0.826272,0.526962 -0.0028,0.0022 -0.0044,0.0033 -5.64e-4,5.5e-4 -0.773355,0.593108 -0.0028,0.0022 -0.723194,0.66201 -0.0028,0.0028 -0.66201,0.723194 -0.0022,0.0028 -0.593107,0.773355 -5.51e-4,5.64e-4 -0.0033,0.0044 -0.0022,0.0028 -0.526962,0.826272 -0.0016,0.0039 -0.0022,0.0039 0,0.0011 -0.445933,0.85714 -0.0022,0.0039 -0.0016,0.0028 -0.0022,0.0044 -0.0016,0.0039 0,5.64e-4 -0.371519,0.897379 -0.0017,0.0039 -0.0022,0.0044 -0.0011,0.0039 -0.291042,0.924939 -5.5e-4,0.0011 -0.0011,0.0039 -0.0011,0.0039 -0.0011,0.005 -0.0011,0.0044 0,5.64e-4 -0.20891,0.943129 -0.0011,0.0039 -5.51e-4,0.0044 -0.0011,0.005 0,0.0039 -0.127331,0.962974 -5.5e-4,0.0039 0,0.0044 -0.04244,0.968485 0,0.0011 0,0.005 0,0.0044 0,0.005 0,0.0011 0.04244,0.969037 0,0.0039 5.5e-4,0.0039 0.127331,0.963524 0,0.0033 0.0011,0.005 5.51e-4,0.0044 0.0011,0.0039 0.20891,0.943129 0,0.0011 0.0011,0.0039 0.0011,0.005 0.0011,0.0039 0.0011,0.0039 0.0016,0.0044 0.289939,0.921632 0.0011,0.0044 0.0022,0.0039 0.0017,0.0039 0.371519,0.897378 0,5.65e-4 0.0016,0.0039 0.0022,0.0044 0.0016,0.0028 0.0022,0.0039 0.445934,0.85714 0,0.0011 0.0022,0.0039 0.0017,0.0039 0.526961,0.826272 0.0022,0.0028 0.0033,0.0044 5.51e-4,5.65e-4 0.590352,0.769496 0.0028,0.0039 0.0022,0.0028 0.662009,0.723194 0.0028,0.0028 0.723194,0.66201 0.0028,0.0022 0.772253,0.592557 0.0017,0.0017 0.0044,0.0028 0.0028,0.0022 0.826272,0.526962 0.0039,0.0017 0.0039,0.0022 0.858242,0.445933 0.0039,0.0022 0.0028,0.0017 0.0044,0.0022 0.0039,0.0022 0.0022,0 0.895725,0.370968 0.0039,0.0017 0.0044,0.0022 0.0039,0.0011 0.0039,0.0011 0.921081,0.28994 0.0011,5.64e-4 0.0039,0.0011 0.0039,0.0011 0.005,0.0011 0.0044,0.0011 5.64e-4,0 0.943129,0.20891 0.0039,0.0011 0.0044,0.0011 0.005,5.64e-4 0.966831,0.127331 0.0039,0.0011 0.972895,0.04189 0.0011,0 0.005,0 0.0044,0 0.005,0 0.0011,0 0.969036,-0.04189 0.0039,0 0.0039,-0.0011 0.966832,-0.127331 0.005,-5.64e-4 0.0044,-0.0011 0.0039,-0.0011 0.953051,-0.211115 0.0039,-0.0011 0.0055,-0.0017 0.0028,-0.0011 0.921632,-0.289939 0.0044,-0.0011 0.0039,-0.0022 0.0039,-0.0017 0.895725,-0.370968 0.0022,0 0.0039,-0.0022 0.0044,-0.0022 0.0028,-0.0017 0.0039,-0.0022 0.862101,-0.448138 0.0039,-0.0017 0.826271,-0.526962 0.0028,-0.0022 0.0044,-0.0028 0.0017,-0.0017 0.768395,-0.5898 0.0039,-0.0028 0.0028,-0.0022 0.723195,-0.66201 0.0028,-0.0028 0.66201,-0.723195 0.0022,-0.0028 0.0028,-0.0039 0.589801,-0.768394 0.0017,-0.0017 0.0028,-0.0044 0.0022,-0.0028 0.526962,-0.826271 0.0017,-0.0039 0.448138,-0.862101 0.0022,-0.0039 0.0017,-0.0028 0.0022,-0.0044 0.0022,-0.0039 0,-0.0022 0.370968,-0.895725 0.0017,-0.0039 0.0022,-0.0039 0.0011,-0.0044 0.28994,-0.921632 0.0011,-0.0028 0.0017,-0.0055 0.0011,-0.0039 0.211116,-0.953051 0.0011,-0.0039 0.0011,-0.0044 5.64e-4,-0.005 0.127331,-0.966832 0.0011,-0.0039 0,-0.0039 0.04189,-0.969036 0,-0.0061 0,-0.0044 0,-0.0061 -0.04189,-0.968485 0,-0.0044 -0.0011,-0.0039 -0.127331,-0.966832 -5.64e-4,-0.005 -0.0011,-0.0044 -0.0011,-0.0039 -0.208911,-0.94368 -0.0022,-0.0094 -0.0011,-0.0039 -0.0017,-0.005 -0.0011,-0.0028 -0.288837,-0.918324 -0.0011,-0.0039 -0.0011,-0.0039 -0.0022,-0.0044 -0.0017,-0.0039 -0.370969,-0.895725 0,-0.0022 -0.0022,-0.0039 -0.0022,-0.0044 -0.0017,-0.0028 -0.0022,-0.0039 -0.448138,-0.862101 -0.0017,-0.0039 -0.526962,-0.826272 -0.0022,-0.0028 -0.0028,-0.0044 -0.0017,-0.0017 -0.592557,-0.772252 -0.0022,-0.0028 -0.66201,-0.723195 -0.0028,-0.0028 -0.723195,-0.662009 -0.0028,-0.0022 -0.0039,-0.0028 -0.770047,-0.590903 -0.0044,-0.0033 -0.0028,-0.0022 -0.826272,-0.526962 -0.0039,-0.0016 -0.0039,-0.0022 -0.0011,0 -0.85714,-0.445933 -0.0039,-0.0022 -0.0028,-0.0016 -0.0044,-0.0022 -0.0039,-0.0016 -5.64e-4,0 -0.897379,-0.371519 -0.0039,-0.0017 -0.0039,-0.0022 -0.0044,-0.0011 -0.921632,-0.28994 -0.0028,-0.0011 -0.0055,-0.0016 -0.0039,-0.0011 -0.953052,-0.211115 -0.0039,-0.0011 -0.0044,-5.5e-4 -0.005,-0.0011 -0.0033,0 -5.64e-4,0 -0.962973,-0.127331 -0.0039,-5.5e-4 -0.973042,-0.04245 -0.0011,0 -0.005,0 -0.0044,0 -0.005,0 -0.0011,0 z m 0.0061,0.100322 0.972895,0.04134 0.0011,5.5e-4 0.972344,0.127882 0.951949,0.211115 0.9299,0.293798 5.64e-4,0 0.899584,0.372622 0.860998,0.448138 0.0017,0.0016 0.826272,0.525859 5.64e-4,0 0.773355,0.593659 0.0011,5.64e-4 0.713824,0.654844 0.0011,0.0011 0.6576,0.71658 0.0017,0.0022 0.595313,0.776662 5.64e-4,5.65e-4 0.524206,0.822964 5.64e-4,5.65e-4 0.448689,0.862101 0.372622,0.899583 0,5.64e-4 0.293798,0.931003 0.211115,0.950846 0.127882,0.972344 0,0.0011 0.04189,0.968486 0,0.0022 0,0.0022 -0.04134,0.968485 -5.64e-4,0.0011 -0.127882,0.972344 -0.211116,0.951948 -0.0011,0.0039 -0.292695,0.926042 0,5.65e-4 -0.373173,0.900685 -0.448138,0.860998 -5.65e-4,5.65e-4 -0.521449,0.819106 -0.0028,0.0044 -0.0022,0.0028 -0.593659,0.773907 -5.65e-4,0.0011 -0.652639,0.71217 -0.0028,0.0028 -0.0033,0.0033 -0.0028,0.0028 -0.71217,0.652639 -0.0011,5.64e-4 -0.776663,0.595864 -0.0044,0.0028 -0.819106,0.521449 -5.64e-4,5.65e-4 -0.865408,0.450342 -0.896827,0.370968 -0.926042,0.292695 -0.0039,0.0011 -0.0039,0.0011 -0.94809,0.210013 -0.972344,0.127882 -0.0011,5.64e-4 -0.968485,0.04134 -0.973997,-0.04189 -0.972344,-0.127882 -0.948091,-0.210013 -0.0039,-0.0011 -0.0039,-0.0011 -0.926041,-0.292695 -5.65e-4,0 -0.896276,-0.370968 -0.0033,-0.0017 -0.0011,-5.65e-4 -0.861549,-0.448689 -0.819106,-0.52145 -0.0039,-0.0028 -5.65e-4,-5.64e-4 -0.0028,-0.0017 -0.773906,-0.593659 -0.0022,-0.0017 -5.64e-4,-5.65e-4 -0.715982,-0.657105 -0.0011,-0.0011 -0.0022,-0.0017 -0.65319,-0.713273 -0.593659,-0.773906 -0.0022,-0.0028 -0.0028,-0.0044 -0.520898,-0.819106 -0.0016,-0.0017 -0.447587,-0.859896 -0.373173,-0.901237 -0.292695,-0.926041 -0.0011,-0.0039 0,-0.0011 -0.0011,-0.0028 -0.210013,-0.94809 -0.127882,-0.972344 -0.04189,-0.969587 0,-0.0022 0,-0.0022 0.04189,-0.969588 0.127882,-0.972344 0.210013,-0.948089 0.0011,-0.0028 0,-0.0011 0.0011,-0.0039 0.292695,-0.926042 0,-5.65e-4 0.370968,-0.896276 0.0016,-0.0033 5.51e-4,-0.0011 0.447586,-0.859896 0.0016,-0.0017 0.520899,-0.819106 0.0028,-0.0039 5.64e-4,-5.64e-4 0.0017,-0.0028 0.593659,-0.773906 0.0017,-0.0022 5.65e-4,-5.65e-4 0.654292,-0.713272 0.0017,-0.0011 0.0011,-0.0017 0.713273,-0.654292 5.64e-4,-5.65e-4 0.0022,-0.0017 0.773906,-0.593659 0.0028,-0.0017 5.65e-4,-5.64e-4 0.0039,-0.0028 0.819106,-0.520899 0.0017,-0.0016 0.859896,-0.447586 0.0011,-5.51e-4 0.0033,-0.0017 0.896827,-0.370968 0.926042,-0.292695 0.0039,-0.0011 0.0039,-0.0011 0.94809,-0.210013 0.972344,-0.127882 0.0011,0 0.968485,-0.04189 z"
       id="path429" />
    <circle
       style="opacity:1;fill:#000000;fill-opacity:1;stroke:none;stroke-opacity:1"
       id="path4246"
       cx="43.999638"
       cy="-40.000813"
       r="0.2" />
    <circle
       style="opacity:1;fill:#ffffff;fill-opacity:1;stroke:none;stroke-opacity:1"
       id="path4246-0"
       cx="15.999693"
       cy="-40.000866"
       r="0.2" />
    <circle
       style="opacity:1;fill:#ffffff;fill-opacity:1;stroke:none;stroke-opacity:1"
       id="path4246-0-9"
       cx="15.999693"
       cy="-12.00097"
       r="0.2" />
    <circle
       style="opacity:1;fill:#ffffff;fill-opacity:1;stroke:none;stroke-opacity:1"
       id="path4246-0-3"
       cx="43.999977"
       cy="-12.000304"
       r="0.2" />
    <circle
       style="opacity:1;fill:#ffffff;fill-opacity:1;stroke:none;stroke-opacity:1"
       id="path4246-0-6"
       cx="44.000237"
       cy="12.000298"
       r="0.2" />
    <circle
       style="opacity:1;fill:#ffffff;fill-opacity:1;stroke:none;stroke-opacity:1"
       id="path4246-0-0"
       cx="15.999951"
       cy="11.99963"
       r="0.2" />
    <text
       xml:space="preserve"
       style="color:#000000;font-style:normal;font-variant:normal;font-weight:normal;font-stretch:normal;font-size:2.11666668px;line-height:125%;font-family:'DejaVu Sans';-inkscape-font-specification:'DejaVu Sans';text-indent:0;text-align:center;text-decoration:none;text-decoration-line:none;letter-spacing:0px;word-spacing:0px;text-transform:none;direction:ltr;block-progression:tb;writing-mode:lr-tb;baseline-shift:baseline;text-anchor:middle;display:inline;overflow:visible;visibility:visible;fill:#000000;fill-opacity:1;fill-rule:nonzero;stroke:none;stroke-width:1px;stroke-linecap:butt;stroke-linejoin:miter;stroke-opacity:1;marker:none;enable-background:accumulate;"
       x="16"
       y="-52.999996"
       id="text4365"
       sodipodi:linespacing="125%"><tspan
         sodipodi:role="line"
         id="tspan4367"
         x="16"
         y="-52.999996"
         style="font-size:2.11666668px;text-align:center;text-anchor:middle;">TOP</tspan></text>
    <text
       xml:space="preserve"
       style="color:#000000;font-style:normal;font-variant:normal;font-weight:normal;font-stretch:normal;font-size:2.11666679px;line-height:125%;font-family:'DejaVu Sans';-inkscape-font-specification:'DejaVu Sans';text-indent:0;text-align:center;text-decoration:none;text-decoration-line:none;letter-spacing:0px;word-spacing:0px;text-transform:none;direction:ltr;block-progression:tb;writing-mode:lr-tb;baseline-shift:baseline;text-anchor:middle;display:inline;overflow:visible;visibility:visible;fill:#000000;fill-opacity:1;fill-rule:nonzero;stroke:none;stroke-width:1px;stroke-linecap:butt;stroke-linejoin:miter;stroke-opacity:1;marker:none;enable-background:accumulate"
       x="44"
       y="-52.999996"
       id="text4365-6"
       sodipodi:linespacing="125%"><tspan
         sodipodi:role="line"
         id="tspan4367-2"
         x="44"
         y="-52.999996"
         style="font-size:2.11666679px;text-align:center;text-anchor:middle">BOT</tspan></text>
    <text
       xml:space="preserve"
       style="color:#000000;font-style:normal;font-variant:normal;font-weight:normal;font-stretch:normal;font-size:2.11666679px;line-height:125%;font-family:'DejaVu Sans';-inkscape-font-specification:'DejaVu Sans';text-indent:0;text-align:center;text-decoration:none;text-decoration-line:none;letter-spacing:0px;word-spacing:0px;text-transform:none;direction:ltr;block-progression:tb;writing-mode:lr-tb;baseline-shift:baseline;text-anchor:middle;display:inline;overflow:visible;visibility:visible;fill:#000000;fill-opacity:1;fill-rule:nonzero;stroke:none;stroke-width:1px;stroke-linecap:butt;stroke-linejoin:miter;stroke-opacity:1;marker:none;enable-background:accumulate"
       x="39.999996"
       y="3"
       id="text4365-61"
       sodipodi:linespacing="125%"
       transform="matrix(0,-1,1,0,0,0)"><tspan
         sodipodi:role="line"
         id="tspan4367-8"
         x="39.999996"
         y="3"
         style="font-size:2.11666679px;text-align:center;text-anchor:middle">PART1 LHCP</tspan></text>
    <text
       xml:space="preserve"
       style="color:#000000;font-style:normal;font-variant:normal;font-weight:normal;font-stretch:normal;font-size:2.11666679px;line-height:125%;font-family:'DejaVu Sans';-inkscape-font-specification:'DejaVu Sans';text-indent:0;text-align:center;text-decoration:none;text-decoration-line:none;letter-spacing:0px;word-spacing:0px;text-transform:none;direction:ltr;block-progression:tb;writing-mode:lr-tb;baseline-shift:baseline;text-anchor:middle;display:inline;overflow:visible;visibility:visible;fill:#000000;fill-opacity:1;fill-rule:nonzero;stroke:none;stroke-width:1px;stroke-linecap:butt;stroke-linejoin:miter;stroke-opacity:1;marker:none;enable-background:accumulate"
       x="11.999996"
       y="3"
       id="text4365-61-7"
       sodipodi:linespacing="125%"
       transform="matrix(0,-1,1,0,0,0)"><tspan
         sodipodi:role="line"
         id="tspan4367-8-9"
         x="11.999996"
         y="3"
         style="font-size:2.11666679px;text-align:center;text-anchor:middle">PART2 LHCP</tspan></text>
    <text
       xml:space="preserve"
       style="color:#000000;font-style:normal;font-variant:normal;font-weight:normal;font-stretch:normal;font-size:2.11666679px;line-height:125%;font-family:'DejaVu Sans';-inkscape-font-specification:'DejaVu Sans';text-indent:0;text-align:center;text-decoration:none;text-decoration-line:none;letter-spacing:0px;word-spacing:0px;text-transform:none;direction:ltr;block-progression:tb;writing-mode:lr-tb;baseline-shift:baseline;text-anchor:middle;display:inline;overflow:visible;visibility:visible;fill:#000000;fill-opacity:1;fill-rule:nonzero;stroke:none;stroke-width:1px;stroke-linecap:butt;stroke-linejoin:miter;stroke-opacity:1;marker:none;enable-background:accumulate"
       x="-12.000004"
       y="3"
       id="text4365-61-2"
       sodipodi:linespacing="125%"
       transform="matrix(0,-1,1,0,0,0)"><tspan
         sodipodi:role="line"
         id="tspan4367-8-0"
         x="-12.000004"
         y="3"
         style="font-size:2.11666679px;text-align:center;text-anchor:middle">PART3</tspan></text>
  </g>
</svg>
